<svg width="256" height="256" viewBox="0 0 256 256" version="1.1" xmlns="http://www.w3.org/2000/svg" xmlns:xlink="http://www.w3.org/1999/xlink">
<title>256</title>
<desc>Created using Figma</desc>
<g id="Canvas" transform="translate(-309 28)">
<g id="256">
<g id="Rectangle">
<use xlink:href="#path0_fill" transform="translate(309 -28)" fill="#F2F2F2"/>
</g>
<g id="V" filter="url(#filter0_d)">
<use xlink:href="#path1_fill" transform="translate(309 -28)" fill="#FFFFFF"/>
</g>
</g>
</g>
<defs>
<filter id="filter0_d" filterUnits="userSpaceOnUse" x="349" y="-3" width="178" height="211" color-interpolation-filters="sRGB">
<feFlood flood-opacity="0" result="BackgroundImageFix"/>
<feColorMatrix in="SourceAlpha" type="matrix" values="0 0 0 0 0 0 0 0 0 0 0 0 0 0 0 0 0 0 255 0"/>
<feOffset dx="2" dy="2"/>
<feColorMatrix type="matrix" values="0 0 0 0 0.741176 0 0 0 0 0.741176 0 0 0 0 0.741176 0 0 0 1 0"/>
<feBlend mode="normal" in2="BackgroundImageFix" result="effect1_dropShadow"/>
<feBlend mode="normal" in="SourceGraphic" in2="effect1_dropShadow" result="shape"/>
</filter>
<path id="path0_fill" d="M 0 0L 256 0L 256 256L 0 256L 0 0Z"/>
<path id="path1_fill" d="M 152.751 229.696C 144.687 232.384 137.391 233.728 130.863 233.728C 121.071 233.728 113.391 230.176 107.823 223.072C 102.447 215.776 98.0311 205.504 94.5751 192.256C 93.8071 189.376 91.1191 178.816 86.5111 160.576C 77.4871 124.864 70.1911 99.04 64.6231 83.104C 59.0551 66.976 50.8951 54.784 40.1431 46.528C 42.4471 40.768 46.1911 36.16 51.3751 32.704C 56.7511 29.248 62.9911 27.52 70.0951 27.52C 77.1991 27.52 83.0551 30.304 87.6631 35.872C 92.2711 41.248 95.9191 47.872 98.6071 55.744C 101.487 63.616 103.983 71.2 106.095 78.496C 108.207 85.792 110.415 94.816 112.719 105.568C 115.215 116.32 117.135 125.056 118.479 131.776C 120.015 138.304 122.319 149.632 125.391 165.76C 128.655 181.696 131.055 193.312 132.591 200.608C 164.847 116.512 180.975 60.352 180.975 32.128C 180.975 29.632 180.879 27.808 180.687 26.656C 183.567 26.08 186.543 25.792 189.615 25.792C 197.295 25.792 203.535 27.712 208.335 31.552C 213.327 35.2 215.823 40.48 215.823 47.392C 215.823 56.992 206.319 85.408 187.311 132.64C 168.495 179.68 156.975 212.032 152.751 229.696Z"/>
</defs>
</svg>
