<svg width="512" height="512" viewBox="0 0 512 512" version="1.1" xmlns="http://www.w3.org/2000/svg" xmlns:xlink="http://www.w3.org/1999/xlink">
<title>512</title>
<desc>Created using Figma</desc>
<g id="Canvas" transform="translate(318 284)">
<g id="512">
<g id="Rectangle">
<use xlink:href="#path0_fill" transform="translate(-318 -284)" fill="#F2F2F2"/>
</g>
<g id="V" filter="url(#filter0_d)">
<use xlink:href="#path1_fill" transform="translate(-318 -284)" fill="#FFFFFF"/>
</g>
</g>
</g>
<defs>
<filter id="filter0_d" filterUnits="userSpaceOnUse" x="-219" y="-210" width="316" height="373" color-interpolation-filters="sRGB">
<feFlood flood-opacity="0" result="BackgroundImageFix"/>
<feColorMatrix in="SourceAlpha" type="matrix" values="0 0 0 0 0 0 0 0 0 0 0 0 0 0 0 0 0 0 255 0"/>
<feOffset dx="2" dy="2"/>
<feColorMatrix type="matrix" values="0 0 0 0 0.741176 0 0 0 0 0.741176 0 0 0 0 0.741176 0 0 0 1 0"/>
<feBlend mode="normal" in2="BackgroundImageFix" result="effect1_dropShadow"/>
<feBlend mode="normal" in="SourceGraphic" in2="effect1_dropShadow" result="shape"/>
</filter>
<path id="path0_fill" d="M 0 0L 512 0L 512 512L 0 512L 0 0Z"/>
<path id="path1_fill" d="M 300.002 436.904C 285.666 441.683 272.695 444.072 261.09 444.072C 243.682 444.072 230.029 437.757 220.13 425.128C 210.573 412.157 202.722 393.896 196.578 370.344C 195.213 365.224 190.434 346.451 182.242 314.024C 166.199 250.536 153.229 204.627 143.33 176.296C 133.431 147.624 118.925 125.949 99.81 111.272C 103.906 101.032 110.562 92.84 119.778 86.696C 129.335 80.552 140.429 77.48 153.058 77.48C 165.687 77.48 176.098 82.4293 184.29 92.328C 192.482 101.885 198.967 113.661 203.746 127.656C 208.866 141.651 213.303 155.133 217.058 168.104C 220.813 181.075 224.738 197.117 228.834 216.232C 233.271 235.347 236.685 250.877 239.074 262.824C 241.805 274.429 245.901 294.568 251.362 323.24C 257.165 351.571 261.431 372.221 264.162 385.192C 321.506 235.688 350.178 135.848 350.178 85.672C 350.178 81.2347 350.007 77.992 349.666 75.944C 354.786 74.92 360.077 74.408 365.538 74.408C 379.191 74.408 390.285 77.8213 398.818 84.648C 407.693 91.1333 412.13 100.52 412.13 112.808C 412.13 129.875 395.234 180.392 361.442 264.36C 327.991 347.987 307.511 405.501 300.002 436.904Z"/>
</defs>
</svg>
