<svg version="1" xmlns="http://www.w3.org/2000/svg" width="933.333" height="933.333" viewBox="0 0 700.000000 700.000000"><path d="M0 350v350h700V0H0v350zm538.5-165c27.2 1.8 44.1 4.6 62 10.1 16.2 5 23.3 9.6 30.6 19.8 8.1 11.4 10.9 30.6 5.9 40.6-8.9 17.7-45.1 39.1-90.7 53.6-4 1.2-7.1 2.4-7 2.6.2.1 4.8 1.4 10.3 2.8 12.4 3.3 22.4 8 29.2 14.1 6.9 6.1 9.4 11.1 10 20 .4 6.1.1 8-2 12.5-8.8 19.1-33.7 35.2-74.6 48.3-31.3 10.1-68.3 16.4-109.7 18.7-29.1 1.5-39.2.5-50.9-5.3-8.3-4.2-15-10.8-19-19-7.2-14.2-6.2-20.5 7.4-47.3 12.4-24.5 34.3-60 50.4-81.8 3.2-4.3 5.6-8 5.4-8.2-.5-.6-11 1.5-18.3 3.7-9.8 2.9-20 8.3-34 17.8-6.6 4.5-15.8 10.7-20.5 13.7-5.7 3.8-14.3 11.3-26.5 23.2-50.6 49.6-92.6 84-120.5 98.9-16.7 9-23.6 10.6-39.2 9.2-9.2-.8-11.1-1.3-19.3-5.4-10.9-5.4-17-10.5-24.5-20.7-26.9-36.3-35.3-94.5-20.4-140.9 9.4-29.4 28-53.9 49.6-65.3 8.5-4.5 16-6 26.9-5.5 7.2.3 9.7.9 15.2 3.6 14.2 7 23.1 19.2 23.1 31.6 0 11.4-6.7 21-29.6 42.1-8 7.5-8.8 8.6-11.7 16.3-7.9 20.8-9.9 39.8-5.9 56.2 2.4 9.9 10.4 21.4 16.8 24 2.6 1.1 3.6.9 8.2-1.5 16.5-8.7 40.8-33.3 74.7-76 16-20 19.8-24.2 31.3-34.1 27.6-23.5 64-42.1 107.3-54.4 50.3-14.5 110.8-21.3 160-18zM626 460.1c7.7 3.5 12 10.4 12 19.3-.1 9.6-6.4 18.2-15.1 20.4-2.2.5-124.2 8.5-271.2 17.7C56.9 536 79.5 535.2 71.9 528.3c-4.9-4.5-6.9-9-6.9-15.7.1-10.2 6.7-18.5 16.4-20.6 5.4-1.2 515.6-33.7 531.1-33.9 7.1 0 10 .4 13.5 2z"/><path d="M541 241.6c-26.6 1.7-45 3.7-69.7 7.6l-14.2 2.2-14.3 24c-24.1 40.8-34.5 64-33.6 75.3.6 6.4 4.1 11.3 11.3 15.8 4.3 2.6 5.9 3 13.9 3.4 23.3.9 73.5-7.6 85.2-14.4 5.3-3.1 6.3-5.8 3.7-9.4-5.8-7.7-28.7-14.1-57.7-16-8.1-.6-15.9-1.6-17.4-2.3-1.5-.7-3.5-3-4.5-5-1.6-3.3-1.7-4-.3-7.2 3.3-7.8 9.5-11.4 29.1-16.7 41.7-11.2 83.7-27.5 94.3-36.4 5.8-4.8 3.4-13-5.2-18-4.7-2.8-10.3-3.5-20.6-2.9z"/></svg>