<svg width="121" height="75" viewBox="0 0 121 75" fill="none" xmlns="http://www.w3.org/2000/svg">
<path d="M101 55L118 38.2777L101 21" stroke="white" stroke-width="4"/>
<path d="M40.7714 12.3008L40.7714 27.7695C40.7714 31.1328 39.8163 33.7402 37.9061 35.5918C36.0077 37.4316 33.2655 38.3516 29.6796 38.3516C26.1757 38.3516 23.4804 37.4551 21.5936 35.6621C19.7186 33.8691 18.7811 31.291 18.7811 27.9277V12.3008H25.7597V27.3828C25.7597 29.1992 26.0995 30.5176 26.7792 31.3379C27.4589 32.1582 28.4608 32.5684 29.785 32.5684C31.203 32.5684 32.2284 32.1641 32.8612 31.3555C33.5058 30.5352 33.828 29.1992 33.828 27.3477L33.828 12.3008L40.7714 12.3008ZM49.7679 38L49.7679 12.3008H56.7464L56.7464 38H49.7679ZM19.473 53.3027C19.473 55.4473 18.8812 57.0996 17.6976 58.2598C16.5199 59.4199 14.8617 60 12.723 60H8.56579L8.56579 47.1504H13.0131C15.0756 47.1504 16.6664 47.6777 17.7855 48.7324C18.9105 49.7871 19.473 51.3105 19.473 53.3027ZM15.8695 53.4258C15.8695 52.248 15.6351 51.375 15.1664 50.8066C14.7035 50.2383 13.9974 49.9541 13.0482 49.9541H12.0375V57.1523H12.8109C13.8656 57.1523 14.639 56.8477 15.1312 56.2383C15.6234 55.623 15.8695 54.6855 15.8695 53.4258ZM26.75 60.1758C25.0918 60.1758 23.8027 59.7363 22.8828 58.8574C21.9688 57.9727 21.5117 56.7158 21.5117 55.0869C21.5117 53.4053 21.9365 52.1162 22.7861 51.2197C23.6357 50.3174 24.8486 49.8662 26.4248 49.8662C27.9248 49.8662 29.082 50.2588 29.8965 51.0439C30.7168 51.8232 31.127 52.9482 31.127 54.4189L31.127 55.9482H24.9834C25.0068 56.5049 25.209 56.9414 25.5899 57.2578C25.9766 57.5742 26.501 57.7324 27.1631 57.7324C27.7666 57.7324 28.3203 57.6768 28.8242 57.5654C29.334 57.4482 29.8848 57.252 30.4766 56.9766V59.4463C29.9375 59.7217 29.3809 59.9121 28.8066 60.0176C28.2324 60.123 27.5469 60.1758 26.75 60.1758ZM26.5479 52.2041C26.1436 52.2041 25.8037 52.333 25.5283 52.5908C25.2588 52.8428 25.1006 53.2412 25.0537 53.7861H28.0068C27.9951 53.3057 27.8574 52.9219 27.5938 52.6348C27.3359 52.3477 26.9873 52.2041 26.5479 52.2041ZM41.1198 56.9414C41.1198 58.0078 40.7565 58.8135 40.0299 59.3584C39.3034 59.9033 38.2604 60.1758 36.901 60.1758C36.1627 60.1758 35.5211 60.1348 34.9762 60.0527C34.4313 59.9766 33.8747 59.833 33.3063 59.6221V56.8711C33.8395 57.1055 34.4225 57.2988 35.0553 57.4512C35.694 57.6035 36.2624 57.6797 36.7604 57.6797C37.5045 57.6797 37.8766 57.5098 37.8766 57.1699C37.8766 56.9941 37.7711 56.8389 37.5602 56.7041C37.3551 56.5635 36.7516 56.2939 35.7497 55.8955C34.8356 55.5205 34.1969 55.0957 33.8336 54.6211C33.4704 54.1406 33.2887 53.5342 33.2887 52.8018C33.2887 51.876 33.6461 51.1553 34.361 50.6396C35.0758 50.124 36.0866 49.8662 37.3932 49.8662C38.0495 49.8662 38.6647 49.9395 39.2389 50.0859C39.819 50.2266 40.4196 50.4346 41.0407 50.71L40.109 52.9248C39.652 52.7197 39.1686 52.5469 38.6588 52.4063C38.1491 52.2598 37.7331 52.1865 37.4108 52.1865C36.8483 52.1865 36.567 52.3242 36.567 52.5996C36.567 52.7695 36.6637 52.916 36.8571 53.0391C37.0563 53.1563 37.6247 53.3994 38.5622 53.7686C39.2594 54.0557 39.778 54.3369 40.1178 54.6123C40.4635 54.8877 40.7155 55.2129 40.8737 55.5879C41.0377 55.957 41.1198 56.4082 41.1198 56.9414ZM46.8411 60H43.4046V50.042H46.8411V60ZM43.3167 47.5635C43.3167 47.0479 43.4602 46.6641 43.7474 46.4121C44.0345 46.1602 44.4974 46.0342 45.136 46.0342C45.7747 46.0342 46.2405 46.1631 46.5335 46.4209C46.8265 46.6787 46.9729 47.0596 46.9729 47.5635C46.9729 48.5713 46.3606 49.0752 45.136 49.0752C43.9231 49.0752 43.3167 48.5713 43.3167 47.5635ZM58.996 50.042V51.7031L57.6337 52.2041C57.8212 52.5439 57.915 52.9395 57.915 53.3906C57.915 54.4629 57.537 55.2949 56.7812 55.8867C56.0312 56.4785 54.9091 56.7744 53.415 56.7744C53.0458 56.7744 52.7529 56.751 52.5361 56.7041C52.454 56.8564 52.413 57 52.413 57.1348C52.413 57.3047 52.5507 57.4365 52.8261 57.5303C53.1015 57.6182 53.4618 57.6621 53.9072 57.6621H55.5595C57.7919 57.6621 58.9081 58.6025 58.9081 60.4834C58.9081 61.6963 58.3896 62.6396 57.3525 63.3135C56.3212 63.9873 54.871 64.3242 53.0019 64.3242C51.5898 64.3242 50.4999 64.0869 49.7323 63.6123C48.9706 63.1436 48.5898 62.4668 48.5898 61.582C48.5898 60.3926 49.3281 59.625 50.8046 59.2793C50.4999 59.1504 50.2333 58.9424 50.0048 58.6553C49.7822 58.3682 49.6708 58.084 49.6708 57.8027C49.6708 57.4922 49.7558 57.2197 49.9257 56.9854C50.0956 56.7451 50.4501 56.4609 50.9892 56.1328C50.4736 55.9043 50.0663 55.5469 49.7675 55.0605C49.4745 54.5742 49.3281 53.9824 49.3281 53.2852C49.3281 52.2012 49.6972 51.3604 50.4355 50.7627C51.1738 50.165 52.2284 49.8662 53.5995 49.8662C53.7812 49.8662 54.0947 49.8867 54.54 49.9277C54.9853 49.9688 55.3134 50.0068 55.5243 50.042H58.996ZM51.4902 61.2393C51.4902 61.5205 51.6425 61.7461 51.9472 61.916C52.2519 62.0918 52.6591 62.1797 53.1689 62.1797C54.0009 62.1797 54.6659 62.0742 55.164 61.8633C55.6679 61.6582 55.9198 61.3916 55.9198 61.0635C55.9198 60.7998 55.7675 60.6123 55.4628 60.501C55.1581 60.3955 54.7216 60.3428 54.1532 60.3428H52.8085C52.4394 60.3428 52.1259 60.4277 51.8681 60.5977C51.6161 60.7734 51.4902 60.9873 51.4902 61.2393ZM52.5712 53.3027C52.5712 54.3223 52.9257 54.832 53.6347 54.832C53.9628 54.832 54.2148 54.7061 54.3906 54.4541C54.5722 54.2021 54.663 53.8242 54.663 53.3203C54.663 52.2891 54.3202 51.7734 53.6347 51.7734C52.9257 51.7734 52.5712 52.2832 52.5712 53.3027ZM67.1607 60V54.5684C67.1607 53.9063 67.064 53.4082 66.8707 53.0742C66.6832 52.7344 66.3785 52.5645 65.9566 52.5645C65.3765 52.5645 64.9576 52.7959 64.6998 53.2588C64.442 53.7217 64.3131 54.5156 64.3131 55.6406V60H60.8765V50.042H63.4693L63.9 51.2725H64.1021C64.3951 50.8037 64.7994 50.4521 65.315 50.2178C65.8365 49.9834 66.4341 49.8662 67.108 49.8662C68.2095 49.8662 69.065 50.1855 69.6744 50.8242C70.2896 51.4629 70.5972 52.3623 70.5972 53.5225V60H67.1607Z" fill="white"/>
</svg>
