<svg width="157" height="75" viewBox="0 0 157 75" fill="none" xmlns="http://www.w3.org/2000/svg">
<path d="M21.0002 21L3.02881 37.7223L21.0002 55" stroke="white" stroke-width="4"/>
<path d="M71.8312 41H63.6223L61.1613 29.8027C61.0441 29.334 60.8566 28.4023 60.5988 27.0078C60.3527 25.6133 60.1711 24.4473 60.0539 23.5098C59.9602 24.2715 59.8078 25.2207 59.5969 26.3574C59.3859 27.4824 59.175 28.5195 58.9641 29.4688C58.7648 30.418 57.9152 34.2617 56.4152 41H48.2062L41.843 15.3008L48.5402 15.3008L51.3352 28.1855C51.968 31.0332 52.4016 33.3008 52.6359 34.9883C52.7883 33.793 53.0578 32.1699 53.4445 30.1191C53.843 28.0684 54.2121 26.3691 54.552 25.0215L56.8195 15.3008L63.2531 15.3008L65.4504 25.0215C65.8254 26.5801 66.2062 28.3789 66.593 30.418C66.9797 32.457 67.2375 33.9805 67.3664 34.9883C67.5187 33.6875 67.9348 31.4316 68.6145 28.2207L71.4621 15.3008H78.1594L71.8312 41ZM103.697 30.998C103.697 34.2559 102.818 36.7988 101.06 38.627C99.3141 40.4434 96.8648 41.3516 93.7125 41.3516C90.6891 41.3516 88.2809 40.4199 86.4879 38.5566C84.7066 36.6934 83.816 34.1738 83.816 30.998C83.816 27.752 84.6891 25.2324 86.4352 23.4395C88.193 21.6348 90.6539 20.7324 93.818 20.7324C95.775 20.7324 97.5035 21.1484 99.0035 21.9805C100.504 22.8125 101.658 24.0078 102.466 25.5664C103.287 27.1133 103.697 28.9238 103.697 30.998ZM90.7945 30.998C90.7945 32.709 91.023 34.0156 91.4801 34.918C91.9371 35.8086 92.7047 36.2539 93.7828 36.2539C94.8492 36.2539 95.5992 35.8086 96.0328 34.918C96.4781 34.0156 96.7008 32.709 96.7008 30.998C96.7008 29.2988 96.4781 28.0156 96.0328 27.1484C95.5875 26.2813 94.8258 25.8477 93.7477 25.8477C92.693 25.8477 91.9371 26.2813 91.4801 27.1484C91.023 28.0039 90.7945 29.2871 90.7945 30.998ZM123.258 20.7324C123.855 20.7324 124.424 20.7793 124.963 20.873L125.35 20.9434L124.734 27.4297C124.172 27.2891 123.393 27.2188 122.396 27.2188C120.896 27.2188 119.807 27.5645 119.127 28.2559C118.447 28.9355 118.107 29.9199 118.107 31.209V41H111.234V21.084H116.35L117.422 24.2656H117.756C118.33 23.2109 119.127 22.3613 120.146 21.7168C121.178 21.0605 122.215 20.7324 123.258 20.7324ZM138.407 29.8027C139.239 28.4785 139.948 27.4473 140.534 26.709L144.998 21.084H152.663L145.754 29.5566L153.102 41L145.245 41L140.885 33.8633L138.653 35.5684V41H131.745V13.6484L138.653 13.6484V24.4063C138.653 26.2461 138.524 28.0449 138.266 29.8027H138.407ZM56.5383 65H48.9094L48.9094 52.1504H56.5383V54.9365H52.3811V56.958H56.2307V59.7441H52.3811L52.3811 62.1699H56.5383V65ZM62.4955 59.9199L59.4545 55.042L63.3568 55.042L64.8686 57.8369L66.4154 55.042H70.3266L67.2064 59.9199L70.4496 65H66.5473L64.8686 61.9766L63.1986 65H59.2875L62.4955 59.9199ZM80.0191 65L79.36 63.6816H79.2896C78.8268 64.2559 78.3551 64.6484 77.8746 64.8594C77.3941 65.0703 76.773 65.1758 76.0113 65.1758C75.0738 65.1758 74.3355 64.8945 73.7965 64.332C73.2574 63.7695 72.9879 62.9785 72.9879 61.959C72.9879 60.8984 73.357 60.1104 74.0953 59.5947C74.8336 59.0732 75.9029 58.7803 77.3033 58.7158L78.9645 58.6631V58.5225C78.9645 57.7021 78.5602 57.292 77.7516 57.292C77.025 57.292 76.1021 57.5381 74.983 58.0303L73.9898 55.7627C75.15 55.165 76.6148 54.8662 78.3844 54.8662C79.6617 54.8662 80.649 55.1826 81.3463 55.8154C82.0494 56.4482 82.401 57.333 82.401 58.4697V65H80.0191ZM77.4703 62.75C77.8863 62.75 78.2408 62.6182 78.5338 62.3545C78.8326 62.0908 78.982 61.748 78.982 61.3262V60.5527L78.191 60.5879C77.0602 60.6289 76.4947 61.0449 76.4947 61.8359C76.4947 62.4453 76.8199 62.75 77.4703 62.75ZM98.7645 65V59.5859C98.7645 58.9121 98.6707 58.4082 98.4832 58.0742C98.3016 57.7344 98.0115 57.5645 97.6131 57.5645C97.0857 57.5645 96.699 57.79 96.4529 58.2412C96.2068 58.6924 96.0838 59.3984 96.0838 60.3594V65H92.6385V59.5859C92.6385 58.9121 92.5506 58.4082 92.3748 58.0742C92.199 57.7344 91.9148 57.5645 91.5223 57.5645C90.9832 57.5645 90.5906 57.8047 90.3445 58.2852C90.0984 58.7656 89.9754 59.5508 89.9754 60.6406V65H86.5389V55.042H89.1316L89.5623 56.2725H89.7645C90.0281 55.8154 90.409 55.4668 90.907 55.2266C91.4109 54.9863 91.9822 54.8662 92.6209 54.8662C94.0564 54.8662 95.0643 55.3027 95.6443 56.1758H95.9168C96.198 55.7656 96.5877 55.4463 97.0857 55.2178C97.5896 54.9834 98.1434 54.8662 98.7469 54.8662C99.9246 54.8662 100.795 55.168 101.357 55.7715C101.92 56.375 102.201 57.292 102.201 58.5225V65H98.7645ZM112.315 65.1758C111.812 65.1758 111.36 65.0938 110.962 64.9297C110.563 64.7598 110.168 64.458 109.775 64.0244H109.617C109.723 64.7217 109.775 65.1553 109.775 65.3252V69.3242H106.339V55.042L109.134 55.042L109.617 56.3076H109.775C110.414 55.3467 111.296 54.8662 112.421 54.8662C113.522 54.8662 114.387 55.3232 115.014 56.2373C115.641 57.1514 115.954 58.4053 115.954 59.999C115.954 61.6045 115.626 62.8701 114.97 63.7959C114.319 64.7158 113.435 65.1758 112.315 65.1758ZM111.164 57.5645C110.66 57.5645 110.306 57.7461 110.101 58.1094C109.901 58.4668 109.793 59 109.775 59.709V59.9814C109.775 60.8369 109.89 61.4551 110.118 61.8359C110.347 62.2168 110.707 62.4072 111.199 62.4072C111.639 62.4072 111.958 62.2197 112.157 61.8447C112.356 61.4639 112.456 60.8369 112.456 59.9639C112.456 59.1084 112.356 58.4961 112.157 58.127C111.958 57.752 111.627 57.5645 111.164 57.5645ZM123.159 65H119.723V51.3242H123.159V65ZM132.149 65.1758C130.491 65.1758 129.202 64.7363 128.282 63.8574C127.368 62.9727 126.911 61.7158 126.911 60.0869C126.911 58.4053 127.335 57.1162 128.185 56.2197C129.035 55.3174 130.247 54.8662 131.824 54.8662C133.324 54.8662 134.481 55.2588 135.295 56.0439C136.116 56.8232 136.526 57.9482 136.526 59.4189V60.9482H130.382C130.406 61.5049 130.608 61.9414 130.989 62.2578C131.375 62.5742 131.9 62.7324 132.562 62.7324C133.165 62.7324 133.719 62.6768 134.223 62.5654C134.733 62.4482 135.284 62.252 135.875 61.9766V64.4463C135.336 64.7217 134.78 64.9121 134.205 65.0176C133.631 65.123 132.946 65.1758 132.149 65.1758ZM131.947 57.2041C131.542 57.2041 131.203 57.333 130.927 57.5908C130.658 57.8428 130.499 58.2412 130.453 58.7861H133.406C133.394 58.3057 133.256 57.9219 132.993 57.6348C132.735 57.3477 132.386 57.2041 131.947 57.2041ZM147.959 61.9414C147.959 63.0078 147.595 63.8135 146.869 64.3584C146.142 64.9033 145.099 65.1758 143.74 65.1758C143.002 65.1758 142.36 65.1348 141.815 65.0527C141.27 64.9766 140.713 64.833 140.145 64.6221V61.8711C140.678 62.1055 141.261 62.2988 141.894 62.4512C142.533 62.6035 143.101 62.6797 143.599 62.6797C144.343 62.6797 144.715 62.5098 144.715 62.1699C144.715 61.9941 144.61 61.8389 144.399 61.7041C144.194 61.5635 143.59 61.2939 142.588 60.8955C141.674 60.5205 141.036 60.0957 140.672 59.6211C140.309 59.1406 140.128 58.5342 140.128 57.8018C140.128 56.876 140.485 56.1553 141.2 55.6396C141.915 55.124 142.925 54.8662 144.232 54.8662C144.888 54.8662 145.504 54.9395 146.078 55.0859C146.658 55.2266 147.258 55.4346 147.879 55.71L146.948 57.9248C146.491 57.7197 146.007 57.5469 145.498 57.4063C144.988 57.2598 144.572 57.1865 144.25 57.1865C143.687 57.1865 143.406 57.3242 143.406 57.5996C143.406 57.7695 143.503 57.916 143.696 58.0391C143.895 58.1563 144.463 58.3994 145.401 58.7686C146.098 59.0557 146.617 59.3369 146.957 59.6123C147.302 59.8877 147.554 60.2129 147.712 60.5879C147.877 60.957 147.959 61.4082 147.959 61.9414Z" fill="white"/>
</svg>
