<svg width="153" height="93" viewBox="0 0 153 93" fill="none" xmlns="http://www.w3.org/2000/svg">
<path d="M62 73L78.7223 90L96 73" stroke="white" stroke-width="4"/>
<path d="M48.3936 28.6289C48.3936 30.1341 48.0117 31.4733 47.248 32.6465C46.4844 33.8086 45.3831 34.7161 43.9443 35.3691C42.5055 36.0111 40.8177 36.332 38.8809 36.332C37.265 36.332 35.9092 36.2214 34.8135 36C33.7178 35.7676 32.5778 35.3691 31.3936 34.8047L31.3936 28.9609C32.6442 29.6029 33.9447 30.1064 35.2949 30.4717C36.6452 30.8258 37.8848 31.0029 39.0137 31.0029C39.9876 31.0029 40.7015 30.8369 41.1553 30.5049C41.609 30.1618 41.8359 29.7246 41.8359 29.1934C41.8359 28.8613 41.7419 28.5736 41.5537 28.3301C41.3766 28.0755 41.0833 27.821 40.6738 27.5664C40.2754 27.3118 39.2018 26.7917 37.4531 26.0059C35.8704 25.2865 34.6807 24.5892 33.8838 23.9141C33.098 23.2389 32.5114 22.4642 32.124 21.5898C31.7477 20.7155 31.5596 19.6807 31.5596 18.4854C31.5596 16.2497 32.373 14.5065 34 13.2559C35.627 12.0052 37.8626 11.3799 40.707 11.3799C43.2194 11.3799 45.7816 11.9609 48.3936 13.123L46.3848 18.1865C44.1159 17.1462 42.1569 16.626 40.5078 16.626C39.6556 16.626 39.0358 16.7754 38.6484 17.0742C38.2611 17.373 38.0674 17.7438 38.0674 18.1865C38.0674 18.6624 38.3109 19.0885 38.7979 19.4648C39.2959 19.8411 40.6351 20.5273 42.8154 21.5234C44.9072 22.4642 46.3571 23.4769 47.165 24.5615C47.984 25.6351 48.3936 26.9909 48.3936 28.6289ZM58.0557 25.4248C58.8415 24.1742 59.5111 23.2002 60.0645 22.5029L64.2812 17.1904H71.5195L64.9951 25.1924L71.9346 36L64.5137 36L60.3965 29.2598L58.2881 30.8701V36H51.7637L51.7637 10.168H58.2881V20.3281C58.2881 22.0658 58.1663 23.7646 57.9229 25.4248H58.0557ZM80.7002 36H74.209V17.1904L80.7002 17.1904V36ZM74.043 12.5088C74.043 11.5348 74.3141 10.8099 74.8564 10.334C75.3988 9.85807 76.2731 9.62012 77.4795 9.62012C78.6859 9.62012 79.5658 9.86361 80.1191 10.3506C80.6725 10.8376 80.9492 11.557 80.9492 12.5088C80.9492 14.4124 79.7926 15.3643 77.4795 15.3643C75.1885 15.3643 74.043 14.4124 74.043 12.5088ZM91.7236 36H85.2324V10.168H91.7236V36ZM102.714 36H96.2227V10.168H102.714V36ZM121.739 30.2227C121.739 32.237 121.053 33.7588 119.681 34.7881C118.308 35.8174 116.338 36.332 113.771 36.332C112.376 36.332 111.164 36.2546 110.135 36.0996C109.105 35.9557 108.054 35.6846 106.98 35.2861V30.0898C107.988 30.5326 109.089 30.8978 110.284 31.1855C111.491 31.4733 112.564 31.6172 113.505 31.6172C114.91 31.6172 115.613 31.2962 115.613 30.6543C115.613 30.3223 115.414 30.029 115.016 29.7744C114.628 29.5088 113.488 28.9997 111.596 28.2471C109.869 27.5387 108.663 26.7363 107.977 25.8398C107.29 24.9323 106.947 23.7868 106.947 22.4033C106.947 20.6546 107.622 19.2933 108.973 18.3193C110.323 17.3454 112.232 16.8584 114.7 16.8584C115.94 16.8584 117.102 16.9967 118.187 17.2734C119.282 17.5391 120.417 17.932 121.59 18.4521L119.83 22.6357C118.967 22.2484 118.054 21.9219 117.091 21.6563C116.128 21.3796 115.342 21.2412 114.733 21.2412C113.671 21.2412 113.14 21.5013 113.14 22.0215C113.14 22.3424 113.322 22.6191 113.688 22.8516C114.064 23.0729 115.137 23.5322 116.908 24.2295C118.225 24.7718 119.205 25.3031 119.847 25.8232C120.5 26.3434 120.976 26.9577 121.274 27.666C121.584 28.3633 121.739 29.2155 121.739 30.2227Z" fill="white"/>
</svg>
