<svg width="121" height="75" viewBox="0 0 121 75" fill="none" xmlns="http://www.w3.org/2000/svg">
<path d="M21.0002 21L3.02881 37.7223L21.0002 55" stroke="white" stroke-width="4"/>
<path d="M81.7714 12.3008V27.7695C81.7714 31.1328 80.8163 33.7402 78.9061 35.5918C77.0077 37.4316 74.2655 38.3516 70.6796 38.3516C67.1757 38.3516 64.4804 37.4551 62.5936 35.6621C60.7186 33.8691 59.7811 31.291 59.7811 27.9277V12.3008H66.7597V27.3828C66.7597 29.1992 67.0995 30.5176 67.7792 31.3379C68.4589 32.1582 69.4608 32.5684 70.785 32.5684C72.203 32.5684 73.2284 32.1641 73.8612 31.3555C74.5058 30.5352 74.828 29.1992 74.828 27.3477V12.3008L81.7714 12.3008ZM90.7679 38V12.3008H97.7464V38H90.7679ZM60.473 53.3027C60.473 55.4473 59.8812 57.0996 58.6976 58.2598C57.5199 59.4199 55.8617 60 53.723 60H49.5658V47.1504H54.0131C56.0756 47.1504 57.6664 47.6777 58.7855 48.7324C59.9105 49.7871 60.473 51.3105 60.473 53.3027ZM56.8695 53.4258C56.8695 52.248 56.6351 51.375 56.1664 50.8066C55.7035 50.2383 54.9974 49.9541 54.0482 49.9541H53.0375V57.1523H53.8109C54.8656 57.1523 55.639 56.8477 56.1312 56.2383C56.6234 55.623 56.8695 54.6855 56.8695 53.4258ZM67.75 60.1758C66.0918 60.1758 64.8027 59.7363 63.8828 58.8574C62.9688 57.9727 62.5117 56.7158 62.5117 55.0869C62.5117 53.4053 62.9365 52.1162 63.7861 51.2197C64.6357 50.3174 65.8486 49.8662 67.4248 49.8662C68.9248 49.8662 70.082 50.2588 70.8965 51.0439C71.7168 51.8232 72.127 52.9482 72.127 54.4189L72.127 55.9482H65.9834C66.0068 56.5049 66.209 56.9414 66.5899 57.2578C66.9766 57.5742 67.501 57.7324 68.1631 57.7324C68.7666 57.7324 69.3203 57.6768 69.8242 57.5654C70.334 57.4482 70.8848 57.252 71.4766 56.9766V59.4463C70.9375 59.7217 70.3809 59.9121 69.8066 60.0176C69.2324 60.123 68.5469 60.1758 67.75 60.1758ZM67.5479 52.2041C67.1436 52.2041 66.8037 52.333 66.5283 52.5908C66.2588 52.8428 66.1006 53.2412 66.0537 53.7861H69.0068C68.9951 53.3057 68.8574 52.9219 68.5938 52.6348C68.3359 52.3477 67.9873 52.2041 67.5479 52.2041ZM82.1198 56.9414C82.1198 58.0078 81.7565 58.8135 81.0299 59.3584C80.3034 59.9033 79.2604 60.1758 77.901 60.1758C77.1627 60.1758 76.5211 60.1348 75.9762 60.0527C75.4313 59.9766 74.8747 59.833 74.3063 59.6221V56.8711C74.8395 57.1055 75.4225 57.2988 76.0553 57.4512C76.694 57.6035 77.2624 57.6797 77.7604 57.6797C78.5045 57.6797 78.8766 57.5098 78.8766 57.1699C78.8766 56.9941 78.7711 56.8389 78.5602 56.7041C78.3551 56.5635 77.7516 56.2939 76.7497 55.8955C75.8356 55.5205 75.1969 55.0957 74.8336 54.6211C74.4704 54.1406 74.2887 53.5342 74.2887 52.8018C74.2887 51.876 74.6461 51.1553 75.361 50.6396C76.0758 50.124 77.0866 49.8662 78.3932 49.8662C79.0495 49.8662 79.6647 49.9395 80.2389 50.0859C80.819 50.2266 81.4196 50.4346 82.0407 50.71L81.109 52.9248C80.652 52.7197 80.1686 52.5469 79.6588 52.4063C79.1491 52.2598 78.7331 52.1865 78.4108 52.1865C77.8483 52.1865 77.567 52.3242 77.567 52.5996C77.567 52.7695 77.6637 52.916 77.8571 53.0391C78.0563 53.1563 78.6247 53.3994 79.5622 53.7686C80.2594 54.0557 80.778 54.3369 81.1178 54.6123C81.4635 54.8877 81.7155 55.2129 81.8737 55.5879C82.0377 55.957 82.1198 56.4082 82.1198 56.9414ZM87.8411 60H84.4046V50.042H87.8411V60ZM84.3167 47.5635C84.3167 47.0479 84.4602 46.6641 84.7474 46.4121C85.0345 46.1602 85.4974 46.0342 86.136 46.0342C86.7747 46.0342 87.2405 46.1631 87.5335 46.4209C87.8265 46.6787 87.9729 47.0596 87.9729 47.5635C87.9729 48.5713 87.3606 49.0752 86.136 49.0752C84.9231 49.0752 84.3167 48.5713 84.3167 47.5635ZM99.996 50.042V51.7031L98.6337 52.2041C98.8212 52.5439 98.915 52.9395 98.915 53.3906C98.915 54.4629 98.537 55.2949 97.7812 55.8867C97.0312 56.4785 95.9091 56.7744 94.415 56.7744C94.0458 56.7744 93.7529 56.751 93.5361 56.7041C93.454 56.8564 93.413 57 93.413 57.1348C93.413 57.3047 93.5507 57.4365 93.8261 57.5303C94.1015 57.6182 94.4618 57.6621 94.9072 57.6621H96.5595C98.7919 57.6621 99.9081 58.6025 99.9081 60.4834C99.9081 61.6963 99.3896 62.6396 98.3525 63.3135C97.3212 63.9873 95.871 64.3242 94.0019 64.3242C92.5898 64.3242 91.4999 64.0869 90.7323 63.6123C89.9706 63.1436 89.5898 62.4668 89.5898 61.582C89.5898 60.3926 90.3281 59.625 91.8046 59.2793C91.4999 59.1504 91.2333 58.9424 91.0048 58.6553C90.7822 58.3682 90.6708 58.084 90.6708 57.8027C90.6708 57.4922 90.7558 57.2197 90.9257 56.9854C91.0956 56.7451 91.4501 56.4609 91.9892 56.1328C91.4736 55.9043 91.0663 55.5469 90.7675 55.0605C90.4745 54.5742 90.3281 53.9824 90.3281 53.2852C90.3281 52.2012 90.6972 51.3604 91.4355 50.7627C92.1738 50.165 93.2284 49.8662 94.5995 49.8662C94.7812 49.8662 95.0947 49.8867 95.54 49.9277C95.9853 49.9688 96.3134 50.0068 96.5243 50.042H99.996ZM92.4902 61.2393C92.4902 61.5205 92.6425 61.7461 92.9472 61.916C93.2519 62.0918 93.6591 62.1797 94.1689 62.1797C95.0009 62.1797 95.6659 62.0742 96.164 61.8633C96.6679 61.6582 96.9198 61.3916 96.9198 61.0635C96.9198 60.7998 96.7675 60.6123 96.4628 60.501C96.1581 60.3955 95.7216 60.3428 95.1532 60.3428H93.8085C93.4394 60.3428 93.1259 60.4277 92.8681 60.5977C92.6161 60.7734 92.4902 60.9873 92.4902 61.2393ZM93.5712 53.3027C93.5712 54.3223 93.9257 54.832 94.6347 54.832C94.9628 54.832 95.2148 54.7061 95.3906 54.4541C95.5722 54.2021 95.663 53.8242 95.663 53.3203C95.663 52.2891 95.3202 51.7734 94.6347 51.7734C93.9257 51.7734 93.5712 52.2832 93.5712 53.3027ZM108.161 60V54.5684C108.161 53.9063 108.064 53.4082 107.871 53.0742C107.683 52.7344 107.378 52.5645 106.957 52.5645C106.377 52.5645 105.958 52.7959 105.7 53.2588C105.442 53.7217 105.313 54.5156 105.313 55.6406V60H101.877V50.042H104.469L104.9 51.2725H105.102C105.395 50.8037 105.799 50.4521 106.315 50.2178C106.836 49.9834 107.434 49.8662 108.108 49.8662C109.21 49.8662 110.065 50.1855 110.674 50.8242C111.29 51.4629 111.597 52.3623 111.597 53.5225V60H108.161Z" fill="white"/>
</svg>
