<svg width="120" height="75" viewBox="0 0 120 75" fill="none" xmlns="http://www.w3.org/2000/svg">
<path d="M21.0002 21L3.02881 37.7223L21.0002 55" stroke="white" stroke-width="4"/>
<path d="M74.0214 12.3008V27.7695C74.0214 31.1328 73.0663 33.7402 71.1561 35.5918C69.2577 37.4316 66.5155 38.3516 62.9296 38.3516C59.4257 38.3516 56.7304 37.4551 54.8436 35.6621C52.9686 33.8691 52.0311 31.291 52.0311 27.9277L52.0311 12.3008L59.0097 12.3008V27.3828C59.0097 29.1992 59.3495 30.5176 60.0292 31.3379C60.7089 32.1582 61.7108 32.5684 63.035 32.5684C64.453 32.5684 65.4784 32.1641 66.1112 31.3555C66.7558 30.5352 67.078 29.1992 67.078 27.3477V12.3008L74.0214 12.3008ZM106.168 38H98.135L93.1253 29.9668L88.1683 38H80.3108L88.8362 24.8516L80.8206 12.3008H88.5198L93.1604 20.2461L97.6253 12.3008L105.553 12.3008L97.4143 25.3965L106.168 38ZM59.473 53.3027C59.473 55.4473 58.8812 57.0996 57.6976 58.2598C56.5199 59.4199 54.8617 60 52.723 60H48.5658V47.1504H53.0131C55.0756 47.1504 56.6664 47.6777 57.7855 48.7324C58.9105 49.7871 59.473 51.3105 59.473 53.3027ZM55.8695 53.4258C55.8695 52.248 55.6351 51.375 55.1664 50.8066C54.7035 50.2383 53.9974 49.9541 53.0482 49.9541H52.0375V57.1523H52.8109C53.8656 57.1523 54.639 56.8477 55.1312 56.2383C55.6234 55.623 55.8695 54.6855 55.8695 53.4258ZM66.75 60.1758C65.0918 60.1758 63.8027 59.7363 62.8828 58.8574C61.9688 57.9727 61.5117 56.7158 61.5117 55.0869C61.5117 53.4053 61.9365 52.1162 62.7861 51.2197C63.6357 50.3174 64.8486 49.8662 66.4248 49.8662C67.9248 49.8662 69.082 50.2588 69.8965 51.0439C70.7168 51.8232 71.127 52.9482 71.127 54.4189L71.127 55.9482H64.9834C65.0068 56.5049 65.209 56.9414 65.5899 57.2578C65.9766 57.5742 66.501 57.7324 67.1631 57.7324C67.7666 57.7324 68.3203 57.6768 68.8242 57.5654C69.334 57.4482 69.8848 57.252 70.4766 56.9766V59.4463C69.9375 59.7217 69.3809 59.9121 68.8066 60.0176C68.2324 60.123 67.5469 60.1758 66.75 60.1758ZM66.5479 52.2041C66.1436 52.2041 65.8037 52.333 65.5283 52.5908C65.2588 52.8428 65.1006 53.2412 65.0537 53.7861H68.0068C67.9951 53.3057 67.8574 52.9219 67.5938 52.6348C67.3359 52.3477 66.9873 52.2041 66.5479 52.2041ZM81.1198 56.9414C81.1198 58.0078 80.7565 58.8135 80.0299 59.3584C79.3034 59.9033 78.2604 60.1758 76.901 60.1758C76.1627 60.1758 75.5211 60.1348 74.9762 60.0527C74.4313 59.9766 73.8747 59.833 73.3063 59.6221V56.8711C73.8395 57.1055 74.4225 57.2988 75.0553 57.4512C75.694 57.6035 76.2624 57.6797 76.7604 57.6797C77.5045 57.6797 77.8766 57.5098 77.8766 57.1699C77.8766 56.9941 77.7711 56.8389 77.5602 56.7041C77.3551 56.5635 76.7516 56.2939 75.7497 55.8955C74.8356 55.5205 74.1969 55.0957 73.8336 54.6211C73.4704 54.1406 73.2887 53.5342 73.2887 52.8018C73.2887 51.876 73.6461 51.1553 74.361 50.6396C75.0758 50.124 76.0866 49.8662 77.3932 49.8662C78.0495 49.8662 78.6647 49.9395 79.2389 50.0859C79.819 50.2266 80.4196 50.4346 81.0407 50.71L80.109 52.9248C79.652 52.7197 79.1686 52.5469 78.6588 52.4063C78.1491 52.2598 77.7331 52.1865 77.4108 52.1865C76.8483 52.1865 76.567 52.3242 76.567 52.5996C76.567 52.7695 76.6637 52.916 76.8571 53.0391C77.0563 53.1563 77.6247 53.3994 78.5622 53.7686C79.2594 54.0557 79.778 54.3369 80.1178 54.6123C80.4635 54.8877 80.7155 55.2129 80.8737 55.5879C81.0377 55.957 81.1198 56.4082 81.1198 56.9414ZM86.8411 60H83.4046V50.042H86.8411V60ZM83.3167 47.5635C83.3167 47.0479 83.4602 46.6641 83.7474 46.4121C84.0345 46.1602 84.4974 46.0342 85.136 46.0342C85.7747 46.0342 86.2405 46.1631 86.5335 46.4209C86.8265 46.6787 86.9729 47.0596 86.9729 47.5635C86.9729 48.5713 86.3606 49.0752 85.136 49.0752C83.9231 49.0752 83.3167 48.5713 83.3167 47.5635ZM98.996 50.042V51.7031L97.6337 52.2041C97.8212 52.5439 97.915 52.9395 97.915 53.3906C97.915 54.4629 97.537 55.2949 96.7812 55.8867C96.0312 56.4785 94.9091 56.7744 93.415 56.7744C93.0458 56.7744 92.7529 56.751 92.5361 56.7041C92.454 56.8564 92.413 57 92.413 57.1348C92.413 57.3047 92.5507 57.4365 92.8261 57.5303C93.1015 57.6182 93.4618 57.6621 93.9072 57.6621H95.5595C97.7919 57.6621 98.9081 58.6025 98.9081 60.4834C98.9081 61.6963 98.3896 62.6396 97.3525 63.3135C96.3212 63.9873 94.871 64.3242 93.0019 64.3242C91.5898 64.3242 90.4999 64.0869 89.7323 63.6123C88.9706 63.1436 88.5898 62.4668 88.5898 61.582C88.5898 60.3926 89.3281 59.625 90.8046 59.2793C90.4999 59.1504 90.2333 58.9424 90.0048 58.6553C89.7822 58.3682 89.6708 58.084 89.6708 57.8027C89.6708 57.4922 89.7558 57.2197 89.9257 56.9854C90.0956 56.7451 90.4501 56.4609 90.9892 56.1328C90.4736 55.9043 90.0663 55.5469 89.7675 55.0605C89.4745 54.5742 89.3281 53.9824 89.3281 53.2852C89.3281 52.2012 89.6972 51.3604 90.4355 50.7627C91.1738 50.165 92.2284 49.8662 93.5995 49.8662C93.7812 49.8662 94.0947 49.8867 94.54 49.9277C94.9853 49.9688 95.3134 50.0068 95.5243 50.042H98.996ZM91.4902 61.2393C91.4902 61.5205 91.6425 61.7461 91.9472 61.916C92.2519 62.0918 92.6591 62.1797 93.1689 62.1797C94.0009 62.1797 94.6659 62.0742 95.164 61.8633C95.6679 61.6582 95.9198 61.3916 95.9198 61.0635C95.9198 60.7998 95.7675 60.6123 95.4628 60.501C95.1581 60.3955 94.7216 60.3428 94.1532 60.3428H92.8085C92.4394 60.3428 92.1259 60.4277 91.8681 60.5977C91.6161 60.7734 91.4902 60.9873 91.4902 61.2393ZM92.5712 53.3027C92.5712 54.3223 92.9257 54.832 93.6347 54.832C93.9628 54.832 94.2148 54.7061 94.3906 54.4541C94.5722 54.2021 94.663 53.8242 94.663 53.3203C94.663 52.2891 94.3202 51.7734 93.6347 51.7734C92.9257 51.7734 92.5712 52.2832 92.5712 53.3027ZM107.161 60V54.5684C107.161 53.9063 107.064 53.4082 106.871 53.0742C106.683 52.7344 106.378 52.5645 105.957 52.5645C105.377 52.5645 104.958 52.7959 104.7 53.2588C104.442 53.7217 104.313 54.5156 104.313 55.6406V60H100.877V50.042H103.469L103.9 51.2725H104.102C104.395 50.8037 104.799 50.4521 105.315 50.2178C105.836 49.9834 106.434 49.8662 107.108 49.8662C108.21 49.8662 109.065 50.1855 109.674 50.8242C110.29 51.4629 110.597 52.3623 110.597 53.5225V60H107.161Z" fill="white"/>
</svg>
