<svg width="156" height="75" viewBox="0 0 156 75" fill="none" xmlns="http://www.w3.org/2000/svg">
<path d="M136 55L153 38.2777L136 21" stroke="white" stroke-width="4"/>
<path d="M30.8312 41H22.6223L20.1613 29.8027C20.0441 29.334 19.8566 28.4023 19.5988 27.0078C19.3527 25.6133 19.1711 24.4473 19.0539 23.5098C18.9602 24.2715 18.8078 25.2207 18.5969 26.3574C18.3859 27.4824 18.175 28.5195 17.9641 29.4688C17.7648 30.418 16.9152 34.2617 15.4152 41H7.20625L0.842968 15.3008L7.54023 15.3008L10.3352 28.1855C10.968 31.0332 11.4016 33.3008 11.6359 34.9883C11.7883 33.793 12.0578 32.1699 12.4445 30.1191C12.843 28.0684 13.2121 26.3691 13.552 25.0215L15.8195 15.3008L22.2531 15.3008L24.4504 25.0215C24.8254 26.5801 25.2062 28.3789 25.593 30.418C25.9797 32.457 26.2375 33.9805 26.3664 34.9883C26.5187 33.6875 26.9348 31.4316 27.6145 28.2207L30.4621 15.3008H37.1594L30.8312 41ZM62.6969 30.998C62.6969 34.2559 61.818 36.7988 60.0602 38.627C58.3141 40.4434 55.8648 41.3516 52.7125 41.3516C49.6891 41.3516 47.2809 40.4199 45.4879 38.5566C43.7066 36.6934 42.816 34.1738 42.816 30.998C42.816 27.752 43.6891 25.2324 45.4352 23.4395C47.193 21.6348 49.6539 20.7324 52.818 20.7324C54.775 20.7324 56.5035 21.1484 58.0035 21.9805C59.5035 22.8125 60.6578 24.0078 61.4664 25.5664C62.2867 27.1133 62.6969 28.9238 62.6969 30.998ZM49.7945 30.998C49.7945 32.709 50.023 34.0156 50.4801 34.918C50.9371 35.8086 51.7047 36.2539 52.7828 36.2539C53.8492 36.2539 54.5992 35.8086 55.0328 34.918C55.4781 34.0156 55.7008 32.709 55.7008 30.998C55.7008 29.2988 55.4781 28.0156 55.0328 27.1484C54.5875 26.2813 53.8258 25.8477 52.7477 25.8477C51.693 25.8477 50.9371 26.2813 50.4801 27.1484C50.023 28.0039 49.7945 29.2871 49.7945 30.998ZM82.2578 20.7324C82.8555 20.7324 83.4238 20.7793 83.9629 20.873L84.3496 20.9434L83.7344 27.4297C83.1719 27.2891 82.3926 27.2188 81.3965 27.2188C79.8965 27.2188 78.8066 27.5645 78.127 28.2559C77.4473 28.9355 77.1074 29.9199 77.1074 31.209V41H70.2344V21.084H75.3496L76.4219 24.2656H76.7559C77.3301 23.2109 78.127 22.3613 79.1465 21.7168C80.1777 21.0605 81.2148 20.7324 82.2578 20.7324ZM97.4066 29.8027C98.2387 28.4785 98.9477 27.4473 99.5336 26.709L103.998 21.084H111.663L104.754 29.5566L112.102 41L104.245 41L99.8852 33.8633L97.6527 35.5684V41H90.7445V13.6484L97.6527 13.6484V24.4063C97.6527 26.2461 97.5238 28.0449 97.266 29.8027H97.4066ZM15.5383 65H7.90937L7.90937 52.1504H15.5383V54.9365H11.3811V56.958H15.2307V59.7441H11.3811L11.3811 62.1699H15.5383V65ZM21.4955 59.9199L18.4545 55.042L22.3568 55.042L23.8686 57.8369L25.4154 55.042H29.3266L26.2064 59.9199L29.4496 65H25.5473L23.8686 61.9766L22.1986 65H18.2875L21.4955 59.9199ZM39.0191 65L38.36 63.6816H38.2896C37.8268 64.2559 37.3551 64.6484 36.8746 64.8594C36.3941 65.0703 35.773 65.1758 35.0113 65.1758C34.0738 65.1758 33.3355 64.8945 32.7965 64.332C32.2574 63.7695 31.9879 62.9785 31.9879 61.959C31.9879 60.8984 32.357 60.1104 33.0953 59.5947C33.8336 59.0732 34.9029 58.7803 36.3033 58.7158L37.9645 58.6631V58.5225C37.9645 57.7021 37.5602 57.292 36.7516 57.292C36.025 57.292 35.1021 57.5381 33.983 58.0303L32.9898 55.7627C34.15 55.165 35.6148 54.8662 37.3844 54.8662C38.6617 54.8662 39.649 55.1826 40.3463 55.8154C41.0494 56.4482 41.401 57.333 41.401 58.4697V65H39.0191ZM36.4703 62.75C36.8863 62.75 37.2408 62.6182 37.5338 62.3545C37.8326 62.0908 37.982 61.748 37.982 61.3262V60.5527L37.191 60.5879C36.0602 60.6289 35.4947 61.0449 35.4947 61.8359C35.4947 62.4453 35.8199 62.75 36.4703 62.75ZM57.7645 65V59.5859C57.7645 58.9121 57.6707 58.4082 57.4832 58.0742C57.3016 57.7344 57.0115 57.5645 56.6131 57.5645C56.0857 57.5645 55.699 57.79 55.4529 58.2412C55.2068 58.6924 55.0838 59.3984 55.0838 60.3594V65H51.6385V59.5859C51.6385 58.9121 51.5506 58.4082 51.3748 58.0742C51.199 57.7344 50.9148 57.5645 50.5223 57.5645C49.9832 57.5645 49.5906 57.8047 49.3445 58.2852C49.0984 58.7656 48.9754 59.5508 48.9754 60.6406V65H45.5389V55.042H48.1316L48.5623 56.2725H48.7645C49.0281 55.8154 49.409 55.4668 49.907 55.2266C50.4109 54.9863 50.9822 54.8662 51.6209 54.8662C53.0564 54.8662 54.0643 55.3027 54.6443 56.1758H54.9168C55.198 55.7656 55.5877 55.4463 56.0857 55.2178C56.5896 54.9834 57.1434 54.8662 57.7469 54.8662C58.9246 54.8662 59.7947 55.168 60.3572 55.7715C60.9197 56.375 61.201 57.292 61.201 58.5225V65H57.7645ZM71.3154 65.1758C70.8115 65.1758 70.3604 65.0938 69.9619 64.9297C69.5635 64.7598 69.168 64.458 68.7754 64.0244H68.6172C68.7227 64.7217 68.7754 65.1553 68.7754 65.3252V69.3242H65.3389V55.042L68.1338 55.042L68.6172 56.3076H68.7754C69.4141 55.3467 70.2959 54.8662 71.4209 54.8662C72.5225 54.8662 73.3867 55.3232 74.0137 56.2373C74.6406 57.1514 74.9541 58.4053 74.9541 59.999C74.9541 61.6045 74.626 62.8701 73.9697 63.7959C73.3193 64.7158 72.4346 65.1758 71.3154 65.1758ZM70.1641 57.5645C69.6602 57.5645 69.3057 57.7461 69.1006 58.1094C68.9014 58.4668 68.793 59 68.7754 59.709V59.9814C68.7754 60.8369 68.8896 61.4551 69.1182 61.8359C69.3467 62.2168 69.707 62.4072 70.1992 62.4072C70.6387 62.4072 70.958 62.2197 71.1572 61.8447C71.3564 61.4639 71.4561 60.8369 71.4561 59.9639C71.4561 59.1084 71.3564 58.4961 71.1572 58.127C70.958 57.752 70.627 57.5645 70.1641 57.5645ZM82.1594 65H78.7229V51.3242H82.1594V65ZM91.1488 65.1758C89.4906 65.1758 88.2016 64.7363 87.2816 63.8574C86.3676 62.9727 85.9106 61.7158 85.9106 60.0869C85.9106 58.4053 86.3354 57.1162 87.185 56.2197C88.0346 55.3174 89.2475 54.8662 90.8236 54.8662C92.3236 54.8662 93.4809 55.2588 94.2953 56.0439C95.1156 56.8232 95.5258 57.9482 95.5258 59.4189V60.9482H89.3822C89.4057 61.5049 89.6078 61.9414 89.9887 62.2578C90.3754 62.5742 90.8998 62.7324 91.5619 62.7324C92.1654 62.7324 92.7191 62.6768 93.2231 62.5654C93.7328 62.4482 94.2836 62.252 94.8754 61.9766V64.4463C94.3363 64.7217 93.7797 64.9121 93.2055 65.0176C92.6313 65.123 91.9457 65.1758 91.1488 65.1758ZM90.9467 57.2041C90.5424 57.2041 90.2025 57.333 89.9272 57.5908C89.6576 57.8428 89.4994 58.2412 89.4525 58.7861H92.4057C92.394 58.3057 92.2563 57.9219 91.9926 57.6348C91.7348 57.3477 91.3861 57.2041 90.9467 57.2041ZM106.959 61.9414C106.959 63.0078 106.595 63.8135 105.869 64.3584C105.142 64.9033 104.099 65.1758 102.74 65.1758C102.002 65.1758 101.36 65.1348 100.815 65.0527C100.27 64.9766 99.7135 64.833 99.1451 64.6221V61.8711C99.6783 62.1055 100.261 62.2988 100.894 62.4512C101.533 62.6035 102.101 62.6797 102.599 62.6797C103.343 62.6797 103.715 62.5098 103.715 62.1699C103.715 61.9941 103.61 61.8389 103.399 61.7041C103.194 61.5635 102.59 61.2939 101.588 60.8955C100.674 60.5205 100.036 60.0957 99.6725 59.6211C99.3092 59.1406 99.1275 58.5342 99.1275 57.8018C99.1275 56.876 99.485 56.1553 100.2 55.6396C100.915 55.124 101.925 54.8662 103.232 54.8662C103.888 54.8662 104.504 54.9395 105.078 55.0859C105.658 55.2266 106.258 55.4346 106.879 55.71L105.948 57.9248C105.491 57.7197 105.007 57.5469 104.498 57.4063C103.988 57.2598 103.572 57.1865 103.25 57.1865C102.687 57.1865 102.406 57.3242 102.406 57.5996C102.406 57.7695 102.503 57.916 102.696 58.0391C102.895 58.1563 103.463 58.3994 104.401 58.7686C105.098 59.0557 105.617 59.3369 105.957 59.6123C106.302 59.8877 106.554 60.2129 106.712 60.5879C106.877 60.957 106.959 61.4082 106.959 61.9414Z" fill="white"/>
</svg>
