<svg width="108" height="75" viewBox="0 0 108 75" fill="none" xmlns="http://www.w3.org/2000/svg">
<path d="M88 55L105 38.2777L88 21" stroke="white" stroke-width="4"/>
<path d="M38.6285 12.3008L38.6285 27.7695C38.6285 31.1328 37.6734 33.7402 35.7633 35.5918C33.8648 37.4316 31.1227 38.3516 27.5367 38.3516C24.0328 38.3516 21.3375 37.4551 19.4508 35.6621C17.5758 33.8691 16.6383 31.291 16.6383 27.9277V12.3008H23.6168V27.3828C23.6168 29.1992 23.9566 30.5176 24.6363 31.3379C25.316 32.1582 26.318 32.5684 27.6422 32.5684C29.0602 32.5684 30.0855 32.1641 30.7184 31.3555C31.3629 30.5352 31.6852 29.1992 31.6852 27.3477V12.3008H38.6285ZM47.625 38L47.625 12.3008L54.6035 12.3008L54.6035 38H47.625ZM17.3302 53.3027C17.3302 55.4473 16.7384 57.0996 15.5548 58.2598C14.377 59.4199 12.7188 60 10.5802 60H6.42293L6.42293 47.1504H10.8702C12.9327 47.1504 14.5235 47.6777 15.6427 48.7324C16.7677 49.7871 17.3302 51.3105 17.3302 53.3027ZM13.7266 53.4258C13.7266 52.248 13.4923 51.375 13.0235 50.8066C12.5606 50.2383 11.8546 49.9541 10.9053 49.9541H9.89461V57.1523H10.668C11.7227 57.1523 12.4962 56.8477 12.9884 56.2383C13.4805 55.623 13.7266 54.6855 13.7266 53.4258ZM24.6071 60.1758C22.9489 60.1758 21.6599 59.7363 20.74 58.8574C19.8259 57.9727 19.3689 56.7158 19.3689 55.0869C19.3689 53.4053 19.7937 52.1162 20.6433 51.2197C21.4929 50.3174 22.7058 49.8662 24.282 49.8662C25.782 49.8662 26.9392 50.2588 27.7536 51.0439C28.5739 51.8232 28.9841 52.9482 28.9841 54.4189L28.9841 55.9482H22.8405C22.864 56.5049 23.0661 56.9414 23.447 57.2578C23.8337 57.5742 24.3581 57.7324 25.0202 57.7324C25.6237 57.7324 26.1775 57.6768 26.6814 57.5654C27.1911 57.4482 27.7419 57.252 28.3337 56.9766V59.4463C27.7946 59.7217 27.238 59.9121 26.6638 60.0176C26.0896 60.123 25.404 60.1758 24.6071 60.1758ZM24.405 52.2041C24.0007 52.2041 23.6609 52.333 23.3855 52.5908C23.1159 52.8428 22.9577 53.2412 22.9109 53.7861H25.864C25.8523 53.3057 25.7146 52.9219 25.4509 52.6348C25.1931 52.3477 24.8445 52.2041 24.405 52.2041ZM38.9769 56.9414C38.9769 58.0078 38.6136 58.8135 37.8871 59.3584C37.1605 59.9033 36.1175 60.1758 34.7582 60.1758C34.0199 60.1758 33.3783 60.1348 32.8334 60.0527C32.2884 59.9766 31.7318 59.833 31.1634 59.6221V56.8711C31.6966 57.1055 32.2796 57.2988 32.9125 57.4512C33.5511 57.6035 34.1195 57.6797 34.6175 57.6797C35.3617 57.6797 35.7337 57.5098 35.7337 57.1699C35.7337 56.9941 35.6283 56.8389 35.4173 56.7041C35.2123 56.5635 34.6087 56.2939 33.6068 55.8955C32.6927 55.5205 32.0541 55.0957 31.6908 54.6211C31.3275 54.1406 31.1459 53.5342 31.1459 52.8018C31.1459 51.876 31.5033 51.1553 32.2181 50.6396C32.933 50.124 33.9437 49.8662 35.2503 49.8662C35.9066 49.8662 36.5218 49.9395 37.0961 50.0859C37.6761 50.2266 38.2767 50.4346 38.8978 50.71L37.9662 52.9248C37.5091 52.7197 37.0257 52.5469 36.516 52.4063C36.0062 52.2598 35.5902 52.1865 35.2679 52.1865C34.7054 52.1865 34.4242 52.3242 34.4242 52.5996C34.4242 52.7695 34.5209 52.916 34.7142 53.0391C34.9134 53.1563 35.4818 53.3994 36.4193 53.7686C37.1166 54.0557 37.6351 54.3369 37.975 54.6123C38.3207 54.8877 38.5726 55.2129 38.7308 55.5879C38.8949 55.957 38.9769 56.4082 38.9769 56.9414ZM44.6982 60H41.2617V50.042H44.6982V60ZM41.1738 47.5635C41.1738 47.0479 41.3174 46.6641 41.6045 46.4121C41.8916 46.1602 42.3545 46.0342 42.9932 46.0342C43.6318 46.0342 44.0977 46.1631 44.3906 46.4209C44.6836 46.6787 44.8301 47.0596 44.8301 47.5635C44.8301 48.5713 44.2178 49.0752 42.9932 49.0752C41.7803 49.0752 41.1738 48.5713 41.1738 47.5635ZM56.8532 50.042V51.7031L55.4909 52.2041C55.6784 52.5439 55.7721 52.9395 55.7721 53.3906C55.7721 54.4629 55.3942 55.2949 54.6383 55.8867C53.8883 56.4785 52.7662 56.7744 51.2721 56.7744C50.903 56.7744 50.61 56.751 50.3932 56.7041C50.3112 56.8564 50.2702 57 50.2702 57.1348C50.2702 57.3047 50.4078 57.4365 50.6832 57.5303C50.9586 57.6182 51.319 57.6621 51.7643 57.6621H53.4166C55.6491 57.6621 56.7653 58.6025 56.7653 60.4834C56.7653 61.6963 56.2467 62.6396 55.2096 63.3135C54.1784 63.9873 52.7282 64.3242 50.859 64.3242C49.4469 64.3242 48.3571 64.0869 47.5895 63.6123C46.8278 63.1436 46.4469 62.4668 46.4469 61.582C46.4469 60.3926 47.1852 59.625 48.6618 59.2793C48.3571 59.1504 48.0905 58.9424 47.8619 58.6553C47.6393 58.3682 47.528 58.084 47.528 57.8027C47.528 57.4922 47.6129 57.2197 47.7828 56.9854C47.9528 56.7451 48.3073 56.4609 48.8463 56.1328C48.3307 55.9043 47.9235 55.5469 47.6246 55.0605C47.3317 54.5742 47.1852 53.9824 47.1852 53.2852C47.1852 52.2012 47.5543 51.3604 48.2926 50.7627C49.0309 50.165 50.0856 49.8662 51.4567 49.8662C51.6383 49.8662 51.9518 49.8867 52.3971 49.9277C52.8424 49.9688 53.1705 50.0068 53.3815 50.042H56.8532ZM49.3473 61.2393C49.3473 61.5205 49.4996 61.7461 49.8043 61.916C50.109 62.0918 50.5162 62.1797 51.026 62.1797C51.858 62.1797 52.5231 62.0742 53.0211 61.8633C53.525 61.6582 53.777 61.3916 53.777 61.0635C53.777 60.7998 53.6246 60.6123 53.32 60.501C53.0153 60.3955 52.5787 60.3428 52.0104 60.3428H50.6657C50.2965 60.3428 49.983 60.4277 49.7252 60.5977C49.4733 60.7734 49.3473 60.9873 49.3473 61.2393ZM50.4284 53.3027C50.4284 54.3223 50.7828 54.832 51.4918 54.832C51.82 54.832 52.0719 54.7061 52.2477 54.4541C52.4293 54.2021 52.5202 53.8242 52.5202 53.3203C52.5202 52.2891 52.1774 51.7734 51.4918 51.7734C50.7828 51.7734 50.4284 52.2832 50.4284 53.3027ZM65.0178 60V54.5684C65.0178 53.9063 64.9212 53.4082 64.7278 53.0742C64.5403 52.7344 64.2356 52.5645 63.8137 52.5645C63.2337 52.5645 62.8147 52.7959 62.5569 53.2588C62.2991 53.7217 62.1702 54.5156 62.1702 55.6406V60H58.7337V50.042H61.3264L61.7571 51.2725H61.9593C62.2522 50.8037 62.6565 50.4521 63.1721 50.2178C63.6936 49.9834 64.2913 49.8662 64.9651 49.8662C66.0667 49.8662 66.9221 50.1855 67.5315 50.8242C68.1468 51.4629 68.4544 52.3623 68.4544 53.5225V60L65.0178 60Z" fill="white"/>
</svg>
