<svg width="137" height="183" viewBox="0 0 137 183" fill="none" xmlns="http://www.w3.org/2000/svg">
<path d="M24.2169 72.7619C19.7551 74.3686 14.8383 74.1633 10.5275 72.1891C6.21666 70.2149 2.8575 66.6308 1.17496 62.2102C-0.507587 57.7896 -0.378798 52.8861 1.53379 48.5594C3.44639 44.2328 6.98941 40.8288 11.3981 39.0823L112.783 1.91961C117.245 0.312912 122.162 0.519576 126.473 2.49376C130.784 4.46795 134.142 8.05071 135.825 12.4713C137.508 16.8919 137.379 21.7953 135.466 26.122C133.554 30.4487 130.011 33.8527 125.602 35.5991L24.2169 72.7619Z" fill="#2B77AA"/>
<path d="M24.2169 127.346C19.7551 128.953 14.8383 128.746 10.5275 126.772C6.21666 124.797 2.8575 121.213 1.17496 116.793C-0.507587 112.372 -0.378798 107.47 1.53379 103.143C3.44639 98.8167 6.98941 95.4127 11.3981 93.6663L112.783 56.5021C117.245 54.8954 122.162 55.1021 126.473 57.0763C130.784 59.0505 134.142 62.6346 135.825 67.0552C137.508 71.4758 137.379 76.3779 135.466 80.7045C133.554 85.0312 130.011 88.4352 125.602 90.1817L24.2169 127.346Z" fill="#2B77AA"/>
<path d="M24.2169 181.928C19.7551 183.535 14.8383 183.328 10.5275 181.354C6.21666 179.38 2.8575 175.797 1.17496 171.377C-0.507587 166.956 -0.378798 162.053 1.53379 157.726C3.44639 153.399 6.98941 149.995 11.3981 148.249L112.783 111.086C117.245 109.479 122.162 109.685 126.473 111.659C130.784 113.633 134.142 117.217 135.825 121.638C137.508 126.058 137.379 130.962 135.466 135.288C133.554 139.615 130.011 143.019 125.602 144.765L24.2169 181.928Z" fill="#2B77AA"/>
</svg>
