<svg width="137" height="181" viewBox="0 0 137 181" fill="none" xmlns="http://www.w3.org/2000/svg">
<path d="M24.4158 35.2675C82.0644 43.406 51.5446 150.564 44.0842 180.406H75.2822C67.1436 154.634 73.2475 76.6387 63.1261 59.6832C54.9356 39.3367 36.573 32.4534 25.7723 33.2329C25.3201 32.7807 24.4158 32.5546 24.4158 35.2675Z" fill="black"/>
<circle cx="37.302" cy="21.0248" r="7.4604" fill="black"/>
<circle cx="63.0743" cy="7.4604" r="7.4604" fill="black"/>
<circle cx="14.2426" cy="69.8564" r="7.4604" fill="black"/>
<circle cx="129.54" cy="84.7773" r="7.4604" fill="black"/>
<circle cx="12.8861" cy="33.2326" r="12.8861" fill="black"/>
<circle cx="63.0742" cy="33.2326" r="12.8861" fill="black"/>
<circle cx="106.48" cy="37.3019" r="12.8861" fill="black"/>
<circle cx="35.9455" cy="57.6486" r="12.8861" fill="black"/>
<circle cx="15.599" cy="94.2724" r="12.8861" fill="black"/>
<circle cx="44.0842" cy="87.4901" r="12.8861" fill="black"/>
<circle cx="38.6584" cy="117.332" r="12.8861" fill="black"/>
<circle cx="86.1337" cy="118.688" r="12.8861" fill="black"/>
<circle cx="86.1337" cy="87.4901" r="12.8861" fill="black"/>
<circle cx="82.0644" cy="56.2921" r="12.8861" fill="black"/>
<circle cx="87.4901" cy="16.9555" r="12.8861" fill="black"/>
<circle cx="110.549" cy="68.4999" r="12.8861" fill="black"/>
<circle cx="113.262" cy="103.767" r="12.8861" fill="black"/>
</svg>
