<svg width="785" height="443" viewBox="0 0 785 443" fill="none" xmlns="http://www.w3.org/2000/svg">
<g filter="url(#filter0_d)">
<path d="M345.133 216.191C343.691 149.423 289.989 95.5297 223.308 93.7992L253.308 46.8996L223.308 0C342.984 0 440 96.792 440 216.191H345.133Z" fill="#447AA1"/>
<path d="M345.133 216.191C343.691 149.423 289.989 95.5297 223.308 93.7992L253.308 46.8996L223.308 0C342.984 0 440 96.792 440 216.191H345.133Z" fill="black" fill-opacity="0.2"/>
</g>
<g filter="url(#filter1_d)">
<path d="M216.692 0C97.0162 0 0 96.792 0 216.191L47.4334 186.191L94.8668 216.191C96.3094 149.423 150.011 95.5297 216.692 93.7992L246.692 46.8996L216.692 0Z" fill="#447AA1"/>
<path d="M216.692 0C97.0162 0 0 96.792 0 216.191L47.4334 186.191L94.8668 216.191C96.3094 149.423 150.011 95.5297 216.692 93.7992L246.692 46.8996L216.692 0Z" fill="black" fill-opacity="0.15"/>
</g>
<g filter="url(#filter2_d)">
<path d="M94.8955 222.809C96.9019 289.066 150.379 342.377 216.692 344.098L186.692 391.549L216.692 439C97.0162 439 0 342.208 0 222.809L47.4478 192.809L94.8955 222.809Z" fill="#447AA1"/>
<path d="M94.8955 222.809C96.9019 289.066 150.379 342.377 216.692 344.098L186.692 391.549L216.692 439C97.0162 439 0 342.208 0 222.809L47.4478 192.809L94.8955 222.809Z" fill="black" fill-opacity="0.1"/>
</g>
<path d="M262.501 66.6517L269.696 42.1936L278.584 44.8084C280.582 45.3963 282.233 46.2313 283.536 47.3135C284.863 48.4025 285.869 49.6468 286.555 51.0464C287.242 52.4461 287.618 53.9666 287.684 55.608C287.757 57.2264 287.546 58.8739 287.053 60.5503C286.506 62.4105 285.722 64.014 284.702 65.3608C283.712 66.6914 282.529 67.741 281.156 68.5095C279.788 69.2551 278.27 69.7069 276.602 69.8648C274.963 70.0065 273.225 69.8071 271.388 69.2666L262.501 66.6517ZM282.265 59.1416C282.609 57.9703 282.766 56.8436 282.735 55.7615C282.704 54.6794 282.483 53.6912 282.073 52.7968C281.662 51.9025 281.055 51.125 280.251 50.4643C279.471 49.8104 278.506 49.3145 277.358 48.9766L273.224 47.7604L268.481 63.8821L272.614 65.0983C273.786 65.4429 274.88 65.5403 275.897 65.3904C276.937 65.2473 277.861 64.9076 278.667 64.3714C279.504 63.8189 280.228 63.0962 280.84 62.2033C281.452 61.3104 281.927 60.2898 282.265 59.1416Z" fill="white"/>
<path d="M293.675 78.3242C292.316 77.6608 291.197 76.8341 290.318 75.8441C289.45 74.8325 288.823 73.7382 288.436 72.5612C288.049 71.3841 287.898 70.1619 287.983 68.8945C288.089 67.6377 288.427 66.427 288.995 65.2624C289.585 64.0547 290.343 63.0226 291.269 62.1659C292.205 61.2877 293.256 60.6392 294.422 60.2204C295.599 59.78 296.853 59.5911 298.184 59.6537C299.538 59.7269 300.904 60.1005 302.284 60.7745C303.665 61.4485 304.778 62.286 305.625 63.287C306.493 64.2985 307.11 65.3876 307.475 66.5541C307.861 67.7312 307.991 68.9428 307.863 70.1891C307.757 71.446 307.425 72.6459 306.866 73.7889C306.73 74.0692 306.587 74.3335 306.439 74.5818C306.313 74.8406 306.186 75.0457 306.059 75.1972L292.957 68.7995C292.695 69.4997 292.568 70.1717 292.574 70.8157C292.58 71.4596 292.698 72.065 292.929 72.6317C293.159 73.1984 293.486 73.7052 293.909 74.152C294.332 74.5989 294.824 74.9592 295.384 75.233C296.247 75.6543 297.156 75.8443 298.111 75.8031C299.098 75.7509 299.9 75.4482 300.517 74.895L303.732 77.7468C302.475 78.7354 300.95 79.3132 299.16 79.4803C297.401 79.6363 295.572 79.251 293.675 78.3242ZM303.066 70.2503C303.579 68.9252 303.6 67.6799 303.127 66.5144C302.687 65.3378 301.874 64.46 300.687 63.8807C300.105 63.5964 299.503 63.4357 298.88 63.3986C298.289 63.3505 297.71 63.4149 297.143 63.592C296.575 63.7691 296.036 64.0532 295.525 64.4444C295.035 64.8462 294.615 65.3492 294.267 65.9536L303.066 70.2503Z" fill="white"/>
<path d="M318.935 61.602L323.021 64.2181L312.049 81.3532C311.671 81.9427 311.521 82.4912 311.597 82.9986C311.673 83.506 311.976 83.929 312.504 84.2674C312.748 84.4236 313.038 84.5521 313.375 84.653C313.732 84.767 314.082 84.8475 314.424 84.8948L312.981 88.3561C312.263 88.269 311.493 88.0622 310.67 87.736C309.847 87.4097 309.141 87.0578 308.552 86.6804C307.271 85.8604 306.49 84.8872 306.208 83.7609C305.959 82.6273 306.238 81.4304 307.045 80.1701L318.935 61.602Z" fill="white"/>
<path d="M313.953 89.9982L325.265 74.8031L329.151 77.6957L317.839 92.8908L313.953 89.9982ZM326.841 72.6862L329.712 68.8294L333.597 71.722L330.726 75.5788L326.841 72.6862Z" fill="white"/>
<path d="M324.785 98.6116L332.36 79.9907L336.031 83.3379L329.503 97.6038L343.134 89.814L346.486 92.8701L328.642 102.129L324.785 98.6116Z" fill="white"/>
<path d="M339.951 114.746C338.983 113.585 338.301 112.373 337.904 111.11C337.526 109.832 337.402 108.577 337.53 107.345C337.659 106.113 338.022 104.936 338.618 103.815C339.229 102.712 340.032 101.745 341.028 100.915C342.06 100.055 343.174 99.4236 344.369 99.021C345.582 98.603 346.807 98.4415 348.042 98.5367C349.295 98.6164 350.517 98.9573 351.706 99.5594C352.91 100.18 354.004 101.08 354.987 102.26C355.971 103.439 356.644 104.659 357.006 105.919C357.384 107.197 357.501 108.443 357.357 109.656C357.228 110.888 356.85 112.047 356.224 113.131C355.612 114.234 354.818 115.193 353.841 116.007C353.602 116.207 353.364 116.39 353.127 116.556C352.906 116.74 352.706 116.875 352.528 116.962L343.194 105.764C342.669 106.295 342.277 106.856 342.019 107.446C341.761 108.036 341.622 108.636 341.6 109.248C341.579 109.859 341.669 110.455 341.872 111.036C342.075 111.617 342.376 112.147 342.776 112.626C343.39 113.363 344.141 113.908 345.029 114.262C345.951 114.618 346.807 114.67 347.596 114.418L349.362 118.335C347.81 118.723 346.184 118.626 344.481 118.045C342.813 117.468 341.303 116.368 339.951 114.746ZM351.822 111.224C352.833 110.225 353.361 109.098 353.407 107.841C353.487 106.587 353.104 105.454 352.259 104.44C351.844 103.942 351.361 103.549 350.807 103.26C350.288 102.975 349.734 102.796 349.144 102.726C348.554 102.655 347.945 102.694 347.319 102.841C346.707 103.007 346.119 103.295 345.554 103.703L351.822 111.224Z" fill="white"/>
<path d="M366.129 125.829C365.319 124.609 364.372 123.663 363.286 122.99C362.22 122.304 361.096 122.04 359.915 122.198L350.304 128.35L347.703 124.287L363.591 114.118L365.978 117.847L362.582 120.021C363.309 119.954 364.008 119.977 364.678 120.09C365.368 120.189 366.018 120.358 366.626 120.595C367.234 120.833 367.761 121.123 368.207 121.464C368.687 121.812 369.063 122.199 369.334 122.623C369.477 122.846 369.58 123.007 369.645 123.108C369.722 123.23 369.784 123.347 369.828 123.461L366.129 125.829Z" fill="white"/>
<g filter="url(#filter3_d)">
<path d="M561.692 0C442.016 0 345 96.792 345 216.191L392.433 246.191L439.867 216.191C441.309 149.423 495.011 95.5297 561.692 93.7992L531.692 46.8996L561.692 0Z" fill="#34D69C"/>
</g>
<g filter="url(#filter4_d)">
<path d="M690.133 216.191C688.691 149.423 634.989 95.5297 568.308 93.7992L538.308 46.8996L568.308 0C687.984 0 785 96.792 785 216.191L737.567 186.191L690.133 216.191Z" fill="#34D69C"/>
<path d="M690.133 216.191C688.691 149.423 634.989 95.5297 568.308 93.7992L538.308 46.8996L568.308 0C687.984 0 785 96.792 785 216.191L737.567 186.191L690.133 216.191Z" fill="black" fill-opacity="0.1"/>
</g>
<g filter="url(#filter5_d)">
<path d="M568.308 344.098C634.621 342.377 688.098 289.066 690.104 222.809L737.552 192.809L785 222.809C785 342.208 687.984 439 568.308 439L598.308 391.549L568.308 344.098Z" fill="#34D69C"/>
<path d="M568.308 344.098C634.621 342.377 688.098 289.066 690.104 222.809L737.552 192.809L785 222.809C785 342.208 687.984 439 568.308 439L598.308 391.549L568.308 344.098Z" fill="black" fill-opacity="0.15"/>
</g>
<g filter="url(#filter6_d)">
<path d="M439.896 222.809C441.902 289.066 495.379 342.377 561.692 344.098L591.692 391.549L561.692 439C442.016 439 345 342.208 345 222.809L392.448 252.809L439.896 222.809Z" fill="#34D69C"/>
<path d="M439.896 222.809C441.902 289.066 495.379 342.377 561.692 344.098L591.692 391.549L561.692 439C442.016 439 345 342.208 345 222.809L392.448 252.809L439.896 222.809Z" fill="black" fill-opacity="0.2"/>
</g>
<path d="M480.12 230V208.7H484.26V230H480.12ZM506.074 230V215.9L500.584 226.4H498.334L492.844 215.9V230H488.704V208.7H493.144L499.444 220.82L505.804 208.7H510.214V230H506.074ZM514.661 230V208.7H523.691C524.671 208.7 525.571 208.91 526.391 209.33C527.231 209.73 527.951 210.27 528.551 210.95C529.151 211.61 529.621 212.37 529.961 213.23C530.301 214.07 530.471 214.92 530.471 215.78C530.471 216.68 530.311 217.56 529.991 218.42C529.671 219.26 529.221 220.01 528.641 220.67C528.061 221.33 527.361 221.86 526.541 222.26C525.721 222.66 524.821 222.86 523.841 222.86H518.801V230H514.661ZM518.801 219.23H523.601C524.361 219.23 524.991 218.92 525.491 218.3C526.011 217.68 526.271 216.84 526.271 215.78C526.271 215.24 526.191 214.76 526.031 214.34C525.871 213.9 525.661 213.53 525.401 213.23C525.141 212.93 524.831 212.71 524.471 212.57C524.131 212.41 523.781 212.33 523.421 212.33H518.801V219.23ZM533.353 230V208.7H537.493V226.37H548.353V230H533.353ZM565.662 226.37V230H550.872V208.7H565.392V212.33H555.012V217.46H563.982V220.82H555.012V226.37H565.662ZM586.26 230V215.9L580.77 226.4H578.52L573.03 215.9V230H568.89V208.7H573.33L579.63 220.82L585.99 208.7H590.4V230H586.26ZM609.637 226.37V230H594.847V208.7H609.367V212.33H598.987V217.46H607.957V220.82H598.987V226.37H609.637ZM617.005 216.35V230H612.865V208.7H616.075L627.175 222.68V208.73H631.315V230H627.955L617.005 216.35ZM651.675 212.33H644.865V230H640.755V212.33H633.945V208.7H651.675V212.33Z" fill="#31AB7F"/>
<path d="M170.55 226.37V230H155.76V208.7H170.28V212.33H159.9V217.46H168.87V220.82H159.9V226.37H170.55ZM175.968 208.7L181.278 216.62L186.558 208.7H191.028L183.438 219.5L190.788 230H186.318L181.278 222.38L176.208 230H171.708L179.058 219.5L171.468 208.7H175.968ZM193.172 230V208.7H202.202C203.182 208.7 204.082 208.91 204.902 209.33C205.742 209.73 206.462 210.27 207.062 210.95C207.662 211.61 208.132 212.37 208.472 213.23C208.812 214.07 208.982 214.92 208.982 215.78C208.982 216.68 208.822 217.56 208.502 218.42C208.182 219.26 207.732 220.01 207.152 220.67C206.572 221.33 205.872 221.86 205.052 222.26C204.232 222.66 203.332 222.86 202.352 222.86H197.312V230H193.172ZM197.312 219.23H202.112C202.872 219.23 203.502 218.92 204.002 218.3C204.522 217.68 204.782 216.84 204.782 215.78C204.782 215.24 204.702 214.76 204.542 214.34C204.382 213.9 204.172 213.53 203.912 213.23C203.652 212.93 203.342 212.71 202.982 212.57C202.642 212.41 202.292 212.33 201.932 212.33H197.312V219.23ZM211.864 230V208.7H216.004V226.37H226.864V230H211.864ZM237.125 230.15C235.565 230.15 234.145 229.85 232.865 229.25C231.605 228.63 230.515 227.82 229.595 226.82C228.695 225.8 227.995 224.64 227.495 223.34C226.995 222.04 226.745 220.71 226.745 219.35C226.745 217.93 227.005 216.57 227.525 215.27C228.065 213.97 228.795 212.82 229.715 211.82C230.655 210.82 231.765 210.03 233.045 209.45C234.325 208.85 235.715 208.55 237.215 208.55C238.755 208.55 240.155 208.87 241.415 209.51C242.695 210.13 243.785 210.95 244.685 211.97C245.585 212.99 246.285 214.15 246.785 215.45C247.285 216.75 247.535 218.07 247.535 219.41C247.535 220.83 247.275 222.19 246.755 223.49C246.235 224.77 245.515 225.91 244.595 226.91C243.675 227.89 242.575 228.68 241.295 229.28C240.015 229.86 238.625 230.15 237.125 230.15ZM230.945 219.35C230.945 220.27 231.085 221.16 231.365 222.02C231.645 222.88 232.045 223.64 232.565 224.3C233.105 224.96 233.755 225.49 234.515 225.89C235.295 226.29 236.175 226.49 237.155 226.49C238.155 226.49 239.035 226.29 239.795 225.89C240.575 225.47 241.225 224.92 241.745 224.24C242.285 223.56 242.685 222.8 242.945 221.96C243.225 221.1 243.365 220.23 243.365 219.35C243.365 218.43 243.215 217.54 242.915 216.68C242.635 215.82 242.225 215.06 241.685 214.4C241.165 213.74 240.515 213.22 239.735 212.84C238.975 212.44 238.115 212.24 237.155 212.24C236.155 212.24 235.265 212.45 234.485 212.87C233.705 213.27 233.055 213.81 232.535 214.49C232.015 215.15 231.615 215.91 231.335 216.77C231.075 217.61 230.945 218.47 230.945 219.35ZM250.711 230V208.7H260.131C261.111 208.7 262.011 208.91 262.831 209.33C263.671 209.73 264.391 210.27 264.991 210.95C265.591 211.61 266.061 212.37 266.401 213.23C266.741 214.07 266.911 214.92 266.911 215.78C266.911 217.16 266.561 218.42 265.861 219.56C265.181 220.68 264.251 221.49 263.071 221.99L267.931 230H263.281L258.931 222.86H254.851V230H250.711ZM254.851 219.23H260.041C260.421 219.23 260.771 219.14 261.091 218.96C261.431 218.78 261.721 218.54 261.961 218.24C262.201 217.92 262.391 217.55 262.531 217.13C262.671 216.71 262.741 216.26 262.741 215.78C262.741 215.28 262.661 214.82 262.501 214.4C262.341 213.98 262.121 213.62 261.841 213.32C261.581 213 261.271 212.76 260.911 212.6C260.571 212.42 260.221 212.33 259.861 212.33H254.851V219.23ZM285.452 226.37V230H270.662V208.7H285.182V212.33H274.802V217.46H283.772V220.82H274.802V226.37H285.452Z" fill="#3D6E92"/>
<path d="M412.78 319.914L434.506 306.368L440.249 315.578C440.872 316.578 441.23 317.629 441.324 318.733C441.45 319.844 441.357 320.922 441.045 321.966C440.753 322.998 440.277 323.961 439.616 324.855C438.976 325.736 438.217 326.45 437.339 326.997C436.421 327.569 435.422 327.966 434.341 328.186C433.281 328.394 432.23 328.412 431.188 328.24C430.146 328.068 429.16 327.691 428.23 327.109C427.301 326.527 426.524 325.737 425.901 324.737L422.696 319.596L415.413 324.137L412.78 319.914ZM426.398 317.287L429.451 322.183C429.935 322.959 430.651 323.404 431.602 323.52C432.565 323.656 433.587 323.387 434.668 322.713C435.219 322.369 435.658 321.982 435.984 321.552C436.331 321.109 436.575 320.659 436.716 320.203C436.857 319.747 436.884 319.291 436.798 318.835C436.745 318.387 436.604 317.979 436.375 317.611L433.436 312.899L426.398 317.287Z" fill="white"/>
<path d="M446.254 322.642L449.365 326.329L433.903 339.377C433.371 339.826 433.067 340.303 432.99 340.807C432.913 341.312 433.076 341.802 433.478 342.279C433.664 342.499 433.902 342.707 434.192 342.902C434.497 343.115 434.806 343.294 435.117 343.44L432.729 346.303C432.072 346.009 431.401 345.586 430.716 345.034C430.03 344.482 429.463 343.94 429.014 343.408C428.039 342.253 427.583 341.099 427.647 339.946C427.744 338.796 428.361 337.741 429.499 336.782L446.254 322.642Z" fill="white"/>
<path d="M438.37 353.406C437.696 352.792 437.163 352.111 436.772 351.365C436.397 350.601 436.175 349.83 436.105 349.051C436.051 348.255 436.143 347.478 436.379 346.72C436.634 345.978 437.052 345.287 437.635 344.649C438.233 343.993 438.925 343.519 439.71 343.228C440.529 342.935 441.373 342.828 442.243 342.907C443.131 343.002 444.035 343.275 444.957 343.725C445.894 344.157 446.797 344.77 447.666 345.562C448.287 346.128 448.841 346.731 449.329 347.371C449.835 348.028 450.23 348.663 450.513 349.279L451.241 348.481C452.082 347.559 452.462 346.607 452.383 345.625C452.322 344.66 451.777 343.708 450.748 342.77C450.003 342.091 449.155 341.561 448.203 341.18C447.251 340.799 446.168 340.526 444.954 340.361L445.925 337.106C448.8 337.551 451.275 338.719 453.35 340.611C455.354 342.439 456.453 344.35 456.647 346.346C456.874 348.34 456.139 350.268 454.441 352.13L450.488 356.466C450.148 356.839 449.968 357.161 449.946 357.434C449.943 357.723 450.083 358.014 450.369 358.307L447.603 361.339C446.887 360.913 446.308 360.498 445.864 360.094C445.19 359.48 444.805 358.852 444.707 358.211C444.627 357.586 444.769 356.985 445.134 356.407L445.757 355.563C444.393 355.813 443.073 355.746 441.798 355.363C440.523 354.981 439.381 354.328 438.37 353.406ZM441.758 351.721C442.361 352.271 443.025 352.682 443.751 352.954C444.495 353.243 445.179 353.347 445.804 353.268C446.469 353.322 446.972 353.163 447.311 352.79L448.767 351.194C448.487 350.647 448.139 350.102 447.723 349.56C447.323 349.001 446.893 348.511 446.432 348.091C445.51 347.25 444.562 346.776 443.589 346.668C442.632 346.542 441.862 346.798 441.28 347.437C440.73 348.04 440.5 348.755 440.589 349.584C440.694 350.394 441.084 351.107 441.758 351.721Z" fill="white"/>
<path d="M467.009 374.218L462.938 371.629L468.617 362.698C469.428 361.422 469.798 360.349 469.726 359.478C469.654 358.607 469.223 357.921 468.433 357.419C468.028 357.161 467.561 356.978 467.033 356.87C466.504 356.761 465.951 356.737 465.373 356.796C464.828 356.848 464.275 356.979 463.714 357.191C463.153 357.403 462.647 357.707 462.196 358.103L456.285 367.399L452.214 364.811L462.336 348.892L466.012 351.229L464.138 354.176C465.369 353.537 466.722 353.288 468.197 353.429C469.671 353.57 471.107 354.085 472.504 354.974C473.497 355.605 474.191 356.302 474.587 357.066C474.983 357.83 475.167 358.615 475.137 359.421C475.108 360.227 474.916 361.043 474.561 361.87C474.227 362.71 473.815 363.514 473.325 364.284L467.009 374.218Z" fill="white"/>
<g filter="url(#filter7_d)">
<path d="M223.308 344.098C289.621 342.377 343.098 289.066 345.104 222.809L392.552 252.809L440 222.809C440 342.208 342.984 439 223.308 439L193.308 391.549L223.308 344.098Z" fill="#447AA1"/>
</g>
<path d="M77.6008 155.153L54.7402 143.72L58.8946 135.413C59.8286 133.545 60.9449 132.064 62.2437 130.97C63.5533 129.854 64.9594 129.081 66.4621 128.652C67.9647 128.223 69.5318 128.121 71.1632 128.346C72.7732 128.561 74.3616 129.06 75.9286 129.844C77.6673 130.713 79.1108 131.771 80.2591 133.016C81.3967 134.229 82.2231 135.581 82.7381 137.073C83.2317 138.554 83.4087 140.132 83.269 141.807C83.1186 143.449 82.614 145.128 81.7552 146.846L77.6008 155.153ZM73.6903 134.319C72.5956 133.772 71.5116 133.418 70.4383 133.257C69.365 133.095 68.3507 133.138 67.3954 133.385C66.4402 133.632 65.5654 134.093 64.7711 134.769C63.9875 135.424 63.3273 136.288 62.7906 137.361L60.8583 141.225L75.9269 148.761L77.8592 144.897C78.4067 143.803 78.6966 142.74 78.7289 141.71C78.7719 140.658 78.6003 139.686 78.214 138.796C77.8169 137.872 77.232 137.03 76.4593 136.268C75.6866 135.506 74.7636 134.856 73.6903 134.319Z" fill="white"/>
<path d="M94.4705 126.49C93.5822 127.714 92.5745 128.673 91.4476 129.367C90.3012 130.048 89.1149 130.476 87.8887 130.654C86.6625 130.831 85.4326 130.769 84.199 130.466C82.9794 130.144 81.8453 129.603 80.7965 128.841C79.7089 128.052 78.8233 127.127 78.1395 126.067C77.4364 124.993 76.9793 123.846 76.7683 122.625C76.5379 121.39 76.5686 120.122 76.8604 118.821C77.1664 117.501 77.7705 116.22 78.6729 114.977C79.5753 113.734 80.5927 112.782 81.725 112.121C82.8713 111.441 84.0506 111.022 85.2627 110.863C86.4888 110.686 87.7047 110.768 88.9101 111.109C90.1297 111.431 91.2541 111.966 92.2834 112.713C92.5359 112.896 92.7716 113.082 92.9906 113.271C93.2236 113.44 93.4037 113.601 93.5309 113.752L84.9651 125.551C85.6095 125.93 86.2493 126.172 86.8846 126.277C87.5199 126.382 88.1366 126.37 88.7347 126.241C89.3328 126.112 89.8884 125.877 90.4016 125.538C90.9148 125.199 91.3547 124.777 91.7213 124.272C92.2853 123.495 92.6295 122.633 92.754 121.685C92.8732 120.704 92.7137 119.862 92.2755 119.158L95.64 116.485C96.3964 117.894 96.7021 119.495 96.5571 121.288C96.4068 123.047 95.7113 124.781 94.4705 126.49ZM88.1412 115.845C86.9248 115.11 85.7018 114.875 84.4722 115.139C83.2372 115.369 82.2319 116.018 81.4564 117.087C81.0757 117.611 80.8133 118.177 80.6691 118.784C80.5196 119.357 80.483 119.939 80.5594 120.528C80.6357 121.117 80.8224 121.698 81.1193 122.269C81.4303 122.821 81.8533 123.321 82.3883 123.769L88.1412 115.845Z" fill="white"/>
<path d="M106.871 111.715C105.778 112.856 104.528 113.796 103.122 114.537C101.716 115.278 100.303 115.714 98.8841 115.846L97.9488 112.464C99.3312 112.197 100.551 111.824 101.607 111.345C102.662 110.831 103.563 110.186 104.308 109.408C104.97 108.717 105.362 108.049 105.484 107.403C105.606 106.757 105.425 106.202 104.941 105.738C104.457 105.275 103.879 105.169 103.207 105.42C102.536 105.671 101.548 106.183 100.244 106.956C99.1574 107.605 98.2037 108.133 97.3829 108.54C96.5621 108.947 95.8313 109.208 95.1905 109.323C94.5324 109.422 93.9392 109.383 93.4107 109.208C92.8649 109.017 92.3328 108.673 91.8144 108.176C91.1232 107.514 90.6254 106.788 90.3208 105.999C90.0328 105.192 89.9306 104.365 90.0141 103.517C90.0803 102.652 90.3161 101.801 90.7215 100.963C91.1434 100.107 91.7187 99.2994 92.4473 98.5391C93.4244 97.5196 94.482 96.71 95.6204 96.1102C96.7752 95.4932 98.037 95.1278 99.4058 95.014L100.164 98.4257C98.9831 98.6201 97.9571 98.9297 97.0859 99.3545C96.2313 99.762 95.4976 100.285 94.8849 100.925C94.3218 101.512 93.9708 102.121 93.8319 102.75C93.6929 103.379 93.8913 103.951 94.427 104.464C94.6689 104.696 94.909 104.843 95.1473 104.906C95.4022 104.951 95.6895 104.928 96.0092 104.837C96.3288 104.745 96.7065 104.593 97.1421 104.381C97.577 104.135 98.095 103.819 98.6962 103.434C99.8324 102.732 100.836 102.169 101.707 101.745C102.595 101.302 103.393 101.023 104.102 100.906C104.827 100.773 105.488 100.809 106.084 101.017C106.681 101.19 107.264 101.55 107.834 102.097C109.165 103.372 109.747 104.874 109.58 106.605C109.397 108.318 108.494 110.022 106.871 111.715Z" fill="white"/>
<path d="M114.081 104.231L101.742 89.9616L105.391 86.8063L117.73 101.076L114.081 104.231ZM100.023 87.9737L96.8917 84.352L100.541 81.1967L103.672 84.8184L100.023 87.9737Z" fill="white"/>
<path d="M126.716 94.3045C125.668 95.0253 124.576 95.4705 123.44 95.6401C122.304 95.8096 121.175 95.7561 120.052 95.4794C118.936 95.1694 117.883 94.6554 116.895 93.9375C115.906 93.2195 115.044 92.3266 114.309 91.2588C113.534 90.1317 112.991 88.9612 112.681 87.7475C112.37 86.5337 112.28 85.3434 112.409 84.1766C112.539 83.0097 112.906 81.9126 113.51 80.8853C114.114 79.858 114.95 78.9772 116.018 78.2427C117.224 77.4131 118.473 76.9623 119.763 76.8904C121.04 76.7986 122.288 77.0036 123.507 77.5052L121.63 74.7763L125.1 72.3894L135.28 87.1904C136.069 88.3374 136.559 89.5152 136.749 90.7241C136.94 91.9329 136.867 93.1189 136.531 94.2821C136.215 95.4317 135.639 96.5418 134.802 97.6124C133.985 98.6694 132.954 99.6263 131.708 100.483C130.008 101.653 128.377 102.352 126.816 102.581C125.288 102.816 123.755 102.705 122.217 102.248L122.934 98.6531C124.031 98.9767 125.167 99.0401 126.342 98.8434C127.537 98.633 128.639 98.181 129.648 97.4874C130.261 97.0657 130.783 96.5755 131.214 96.0167C131.679 95.4641 132.006 94.8603 132.196 94.2051C132.387 93.55 132.41 92.8639 132.266 92.147C132.143 91.4166 131.822 90.6756 131.306 89.9242L129.959 87.9665C130.057 89.21 129.811 90.3985 129.222 91.5321C128.619 92.6459 127.784 93.57 126.716 94.3045ZM125.868 90.2127C126.303 89.9134 126.67 89.5586 126.971 89.1482C127.271 88.7377 127.507 88.2983 127.68 87.8298C127.853 87.3613 127.96 86.8804 127.999 86.3872C128.038 85.894 128.005 85.4219 127.899 84.9707L125.348 81.263C124.367 80.5982 123.3 80.2542 122.148 80.231C121.016 80.1941 120.034 80.4613 119.204 81.0325C118.591 81.4541 118.132 81.9734 117.829 82.5902C117.511 83.1873 117.331 83.8357 117.288 84.5353C117.231 85.2151 117.301 85.9098 117.497 86.6192C117.714 87.3151 118.033 87.9695 118.455 88.5825C118.89 89.2153 119.407 89.7337 120.005 90.1378C120.603 90.5419 121.233 90.8223 121.894 90.9792C122.576 91.1224 123.255 91.1359 123.932 91.0196C124.609 90.9032 125.255 90.6343 125.868 90.2127Z" fill="white"/>
<path d="M154.858 78.5103L150.509 80.5978L145.929 71.056C145.275 69.6928 144.559 68.8118 143.782 68.4128C143.005 68.0138 142.194 68.0168 141.35 68.4218C140.918 68.6295 140.516 68.929 140.144 69.3202C139.773 69.7113 139.46 70.1679 139.204 70.6897C138.96 71.1796 138.78 71.7188 138.663 72.3073C138.546 72.8958 138.537 73.486 138.634 74.078L143.401 84.0093L139.052 86.0967L130.89 69.0902L134.817 67.2053L136.328 70.3535C136.436 68.9705 136.94 67.6904 137.839 66.5134C138.738 65.3364 139.934 64.3896 141.427 63.673C142.487 63.1642 143.446 62.9435 144.304 63.011C145.162 63.0785 145.925 63.3378 146.594 63.7887C147.263 64.2396 147.854 64.8342 148.368 65.5724C148.904 66.3003 149.369 67.0753 149.764 67.8975L154.858 78.5103Z" fill="white"/>
<path d="M54.0252 296.032L77.59 286.131L81.1875 294.694C81.9963 296.619 82.393 298.431 82.3777 300.13C82.3717 301.85 82.0421 303.421 81.3891 304.84C80.736 306.26 79.7926 307.516 78.5589 308.607C77.3473 309.688 75.9339 310.568 74.3186 311.247C72.5264 312 70.7839 312.407 69.0911 312.467C67.4298 312.54 65.8654 312.286 64.3978 311.705C62.9524 311.115 61.6399 310.222 60.4604 309.025C59.3123 307.842 58.3664 306.365 57.6227 304.595L54.0252 296.032ZM72.3804 306.634C73.5089 306.16 74.4838 305.568 75.3051 304.858C76.1264 304.149 76.7545 303.351 77.1894 302.466C77.6244 301.58 77.844 300.616 77.8483 299.573C77.8619 298.552 77.6363 297.488 77.1715 296.382L75.4983 292.399L59.9654 298.925L61.6387 302.907C62.1128 304.036 62.7302 304.948 63.491 305.643C64.2611 306.361 65.11 306.864 66.0376 307.151C66.9967 307.451 68.017 307.556 69.0986 307.466C70.1802 307.376 71.2741 307.098 72.3804 306.634Z" fill="white"/>
<path d="M70.2585 328.922C69.4153 327.667 68.8615 326.391 68.5972 325.094C68.3528 323.783 68.3582 322.522 68.6133 321.31C68.8685 320.097 69.3503 318.964 70.0587 317.91C70.7805 316.875 71.6793 315.997 72.755 315.274C73.8706 314.524 75.0436 314.011 76.274 313.733C77.5244 313.443 78.759 313.408 79.9779 313.63C81.2168 313.839 82.3967 314.304 83.5176 315.025C84.6519 315.766 85.6473 316.775 86.504 318.049C87.3607 319.324 87.9045 320.607 88.1355 321.898C88.3799 323.208 88.3678 324.46 88.0992 325.652C87.8441 326.864 87.3489 327.978 86.6137 328.992C85.8919 330.027 85.0031 330.899 83.9473 331.608C83.6883 331.782 83.4326 331.939 83.1802 332.08C82.9412 332.241 82.7286 332.355 82.5424 332.422L74.4108 320.32C73.8335 320.795 73.386 321.312 73.0686 321.873C72.7511 322.433 72.5502 323.016 72.4659 323.622C72.3815 324.228 72.4103 324.83 72.5523 325.429C72.6943 326.028 72.9393 326.586 73.2873 327.104C73.8227 327.901 74.5139 328.52 75.3609 328.963C76.2411 329.413 77.087 329.553 77.8985 329.383L79.2513 333.462C77.6679 333.688 76.0594 333.424 74.4258 332.671C72.8255 331.925 71.4365 330.675 70.2585 328.922ZM82.4315 326.641C83.5399 325.752 84.1817 324.684 84.3569 323.439C84.5654 322.2 84.3016 321.033 83.5654 319.937C83.204 319.399 82.7631 318.958 82.2426 318.614C81.7555 318.276 81.2221 318.042 80.6425 317.911C80.0629 317.78 79.4538 317.756 78.815 317.838C78.1897 317.94 77.5748 318.165 76.9703 318.513L82.4315 326.641Z" fill="white"/>
<path d="M90.4819 331.881L88.768 330.083L91.4259 327.55L93.1398 329.348L93.9737 328.553C94.7207 327.841 95.5489 327.284 96.4582 326.881C97.3841 326.496 98.3138 326.306 99.2473 326.311C100.215 326.317 101.169 326.519 102.11 326.914C103.068 327.328 103.961 327.969 104.789 328.837C105.733 329.828 106.429 330.888 106.877 332.019C107.359 333.151 107.705 334.314 107.914 335.507L103.992 336.61C103.961 335.778 103.777 334.941 103.44 334.101C103.104 333.262 102.638 332.529 102.042 331.904C101.297 331.122 100.499 330.772 99.6478 330.853C98.8137 330.952 98.0752 331.308 97.4324 331.921L96.4683 332.84L103.448 340.162L90.5234 352.482L87.195 348.99L97.4618 339.204L93.8104 335.373L83.5436 345.16L80.2151 341.668L90.4819 331.881Z" fill="white"/>
<path d="M109.564 367.536L105.712 364.644L112.057 356.191C112.964 354.983 113.415 353.943 113.41 353.071C113.406 352.198 113.03 351.482 112.282 350.92C111.899 350.633 111.449 350.414 110.931 350.266C110.413 350.117 109.865 350.049 109.284 350.063C108.738 350.073 108.177 350.161 107.602 350.329C107.027 350.496 106.499 350.76 106.02 351.119L99.415 359.917L95.5623 357.025L106.872 341.959L110.351 344.571L108.257 347.359C109.533 346.818 110.899 346.675 112.356 346.93C113.813 347.185 115.203 347.808 116.526 348.801C117.465 349.506 118.102 350.254 118.437 351.045C118.772 351.837 118.894 352.632 118.803 353.433C118.711 354.233 118.457 355.031 118.04 355.827C117.641 356.637 117.169 357.406 116.622 358.134L109.564 367.536Z" fill="white"/>
<path d="M123.051 375.113C121.699 374.443 120.587 373.612 119.715 372.619C118.854 371.604 118.234 370.509 117.855 369.332C117.475 368.155 117.331 366.934 117.423 365.67C117.536 364.416 117.88 363.209 118.454 362.05C119.049 360.848 119.811 359.822 120.74 358.972C121.679 358.101 122.732 357.459 123.898 357.048C125.075 356.615 126.327 356.433 127.656 356.503C129.006 356.584 130.368 356.964 131.742 357.645C133.116 358.325 134.222 359.167 135.062 360.171C135.923 361.185 136.532 362.276 136.89 363.442C137.27 364.619 137.392 365.829 137.258 367.072C137.145 368.326 136.806 369.522 136.243 370.659C136.105 370.938 135.961 371.201 135.812 371.448C135.685 371.706 135.557 371.91 135.429 372.061L122.388 365.602C122.123 366.3 121.992 366.97 121.994 367.613C121.996 368.255 122.111 368.86 122.338 369.427C122.566 369.994 122.889 370.502 123.308 370.95C123.728 371.398 124.217 371.761 124.775 372.037C125.634 372.462 126.539 372.657 127.493 372.621C128.478 372.575 129.281 372.277 129.9 371.728L133.092 374.592C131.832 375.572 130.308 376.14 128.519 376.297C126.763 376.443 124.94 376.048 123.051 375.113ZM132.469 367.106C132.989 365.787 133.016 364.544 132.551 363.378C132.118 362.201 131.311 361.321 130.131 360.736C129.551 360.449 128.951 360.285 128.329 360.245C127.74 360.193 127.162 360.255 126.594 360.428C126.027 360.602 125.487 360.882 124.975 361.27C124.483 361.668 124.062 362.168 123.711 362.769L132.469 367.106Z" fill="white"/>
<path d="M672.148 79.0463L665.475 74.3287L653.234 91.6426L649.207 88.7955L661.448 71.4815L654.775 66.7639L657.289 63.2071L674.662 75.4895L672.148 79.0463Z" fill="white"/>
<path d="M664.584 101.426C663.466 100.408 662.624 99.3003 662.059 98.1036C661.509 96.8891 661.214 95.6627 661.173 94.4244C661.132 93.1861 661.33 91.9706 661.767 90.7779C662.221 89.6014 662.885 88.534 663.757 87.5757C664.662 86.582 665.679 85.8039 666.808 85.2413C667.953 84.6611 669.144 84.3335 670.381 84.2586C671.634 84.166 672.89 84.3365 674.151 84.7702C675.429 85.2201 676.636 85.962 677.772 86.9962C678.907 88.0303 679.741 89.1466 680.273 90.3449C680.823 91.5594 681.109 92.7777 681.132 93.9998C681.173 95.2381 680.957 96.4374 680.485 97.5978C680.03 98.7744 679.375 99.8329 678.519 100.773C678.309 101.004 678.098 101.218 677.886 101.415C677.692 101.628 677.513 101.789 677.348 101.899L666.568 92.0822C666.12 92.6808 665.809 93.29 665.634 93.9098C665.459 94.5296 665.403 95.1438 665.465 95.7525C665.528 96.3612 665.699 96.9393 665.98 97.4868C666.26 98.0343 666.631 98.5181 667.092 98.9383C667.802 99.5846 668.621 100.022 669.549 100.25C670.511 100.477 671.366 100.412 672.114 100.054L674.399 103.693C672.915 104.289 671.29 104.416 669.524 104.074C667.792 103.73 666.146 102.848 664.584 101.426ZM675.863 96.3106C676.728 95.1829 677.097 93.9933 676.97 92.7421C676.878 91.4892 676.343 90.4184 675.367 89.5297C674.888 89.0934 674.355 88.7701 673.768 88.5597C673.214 88.3478 672.64 88.2472 672.046 88.2581C671.452 88.2689 670.854 88.3903 670.254 88.6223C669.671 88.8704 669.127 89.2357 668.623 89.718L675.863 96.3106Z" fill="white"/>
<path d="M677.915 115.394C676.899 114.178 676.1 112.829 675.517 111.345C674.935 109.862 674.656 108.405 674.682 106.977L678.157 106.419C678.269 107.826 678.506 109.083 678.867 110.188C679.262 111.297 679.805 112.266 680.498 113.095C681.113 113.831 681.736 114.296 682.366 114.489C682.996 114.682 683.569 114.563 684.085 114.132C684.601 113.701 684.771 113.137 684.594 112.44C684.418 111.742 684.018 110.701 683.392 109.316C682.865 108.161 682.444 107.152 682.13 106.289C681.815 105.426 681.636 104.669 681.592 104.018C681.567 103.351 681.67 102.764 681.903 102.256C682.155 101.734 682.556 101.242 683.109 100.78C683.846 100.164 684.624 99.7485 685.444 99.5323C686.28 99.3346 687.116 99.3243 687.952 99.5014C688.806 99.6632 689.629 99.9924 690.419 100.489C691.225 101.004 691.966 101.667 692.643 102.478C693.551 103.564 694.241 104.708 694.713 105.909C695.2 107.128 695.424 108.426 695.386 109.803L691.902 110.181C691.839 108.982 691.644 107.926 691.317 107.01C691.006 106.113 690.565 105.324 689.996 104.643C689.473 104.017 688.905 103.599 688.293 103.391C687.681 103.183 687.09 103.318 686.519 103.795C686.261 104.01 686.088 104.233 685.999 104.464C685.926 104.713 685.917 105.001 685.973 105.33C686.028 105.659 686.138 106.052 686.301 106.51C686.499 106.97 686.756 107.522 687.073 108.163C687.646 109.373 688.097 110.436 688.423 111.351C688.766 112.285 688.956 113.111 688.994 113.83C689.047 114.568 688.937 115.223 688.664 115.794C688.425 116.369 688.002 116.911 687.394 117.419C685.976 118.604 684.414 119.017 682.708 118.66C681.021 118.287 679.423 117.199 677.915 115.394Z" fill="white"/>
<path d="M691.56 132.13C690.964 131.751 690.29 131.252 689.536 130.634C688.782 130.015 688.121 129.278 687.554 128.421C687.184 127.863 686.904 127.289 686.713 126.699C686.536 126.128 686.471 125.555 686.519 124.978C686.6 124.409 686.807 123.856 687.14 123.32C687.493 122.771 688.018 122.265 688.715 121.803L697.709 115.843L696.343 113.782L699.421 111.742L700.787 113.804L705.866 110.438L708.52 114.442L703.44 117.808L705.618 121.095L702.54 123.134L700.362 119.847L692.713 124.916C692.155 125.286 691.849 125.689 691.795 126.126C691.774 126.57 691.902 127.001 692.179 127.42C692.456 127.838 692.797 128.2 693.2 128.506C693.604 128.812 693.934 129.052 694.192 129.225L691.56 132.13Z" fill="white"/>
<path d="M619.291 387.856L612.992 363.025L622.015 360.736C624.043 360.221 625.898 360.098 627.579 360.367C629.284 360.629 630.791 361.19 632.101 362.049C633.41 362.907 634.514 364.029 635.411 365.415C636.303 366.777 636.964 368.309 637.396 370.011C637.875 371.899 638.019 373.687 637.826 375.374C637.651 377.031 637.166 378.544 636.372 379.912C635.571 381.256 634.49 382.424 633.129 383.415C631.784 384.376 630.18 385.094 628.314 385.567L619.291 387.856ZM632.535 371.244C632.233 370.055 631.792 369.001 631.211 368.081C630.631 367.161 629.934 366.42 629.121 365.857C628.308 365.294 627.385 364.932 626.352 364.773C625.342 364.607 624.254 364.672 623.088 364.968L618.892 366.032L623.044 382.4L627.241 381.335C628.43 381.033 629.426 380.557 630.229 379.907C631.055 379.251 631.679 378.484 632.102 377.608C632.542 376.702 632.799 375.706 632.871 374.621C632.943 373.536 632.831 372.41 632.535 371.244Z" fill="white"/>
<path d="M654.266 376.704C652.9 377.352 651.557 377.711 650.235 377.781C648.903 377.829 647.656 377.637 646.494 377.205C645.333 376.773 644.284 376.129 643.346 375.273C642.429 374.406 641.694 373.387 641.138 372.216C640.562 371.002 640.227 369.766 640.135 368.508C640.032 367.228 640.181 366.002 640.581 364.829C640.97 363.635 641.605 362.537 642.484 361.535C643.385 360.523 644.529 359.688 645.917 359.029C647.305 358.37 648.654 358.022 649.964 357.985C651.296 357.937 652.532 358.134 653.672 358.576C654.833 359.008 655.861 359.662 656.756 360.539C657.672 361.406 658.403 362.414 658.948 363.563C659.082 363.845 659.2 364.121 659.301 364.392C659.425 364.652 659.506 364.879 659.545 365.073L646.373 371.325C646.758 371.966 647.203 372.485 647.71 372.882C648.217 373.279 648.765 373.564 649.351 373.737C649.938 373.91 650.538 373.971 651.151 373.919C651.764 373.867 652.353 373.707 652.916 373.44C653.784 373.028 654.499 372.436 655.062 371.664C655.637 370.86 655.901 370.044 655.853 369.217L660.087 368.482C660.076 370.081 659.577 371.633 658.591 373.137C657.616 374.61 656.174 375.799 654.266 376.704ZM653.812 364.328C653.096 363.1 652.135 362.307 650.93 361.95C649.735 361.56 648.542 361.649 647.349 362.215C646.764 362.492 646.262 362.863 645.845 363.327C645.439 363.759 645.128 364.252 644.913 364.805C644.698 365.359 644.583 365.958 644.57 366.602C644.579 367.236 644.71 367.877 644.965 368.526L653.812 364.328Z" fill="white"/>
<path d="M671.221 366.675L654.733 355.174L658.809 352.333L671.28 361.851L666.694 346.836L670.415 344.242L675.503 363.69L671.221 366.675Z" fill="white"/>
<path d="M690.872 351.163C689.789 352.218 688.633 352.991 687.404 353.484C686.159 353.959 684.917 354.18 683.678 354.147C682.44 354.113 681.238 353.843 680.074 353.335C678.927 352.81 677.902 352.084 676.998 351.155C676.06 350.192 675.345 349.13 674.851 347.969C674.341 346.791 674.085 345.583 674.085 344.344C674.068 343.088 674.314 341.844 674.822 340.611C675.348 339.363 676.162 338.202 677.262 337.131C678.363 336.06 679.527 335.295 680.755 334.836C682.001 334.36 683.234 334.148 684.455 334.198C685.694 334.232 686.878 334.519 688.008 335.06C689.155 335.585 690.172 336.303 691.059 337.214C691.277 337.438 691.478 337.661 691.661 337.884C691.862 338.091 692.013 338.279 692.112 338.451L681.665 348.621C682.236 349.104 682.825 349.451 683.433 349.663C684.041 349.875 684.651 349.968 685.262 349.942C685.874 349.916 686.461 349.78 687.024 349.533C687.588 349.286 688.093 348.945 688.54 348.509C689.228 347.84 689.714 347.049 689.998 346.136C690.282 345.189 690.268 344.332 689.956 343.564L693.726 341.502C694.232 343.019 694.261 344.649 693.813 346.391C693.366 348.099 692.385 349.69 690.872 351.163ZM686.445 339.596C685.371 338.666 684.206 338.226 682.949 338.277C681.693 338.294 680.592 338.763 679.646 339.683C679.182 340.135 678.827 340.648 678.582 341.222C678.337 341.762 678.202 342.329 678.177 342.922C678.152 343.516 678.238 344.12 678.433 344.733C678.646 345.33 678.978 345.895 679.429 346.427L686.445 339.596Z" fill="white"/>
<path d="M679.884 323.96L682.858 320.163L698.786 332.638C699.334 333.067 699.863 333.268 700.372 333.24C700.882 333.212 701.329 332.953 701.714 332.462C701.891 332.235 702.046 331.96 702.177 331.636C702.324 331.293 702.437 330.955 702.516 330.62L705.806 332.374C705.652 333.077 705.375 333.82 704.974 334.604C704.574 335.388 704.159 336.053 703.73 336.601C702.798 337.792 701.761 338.473 700.619 338.646C699.474 338.786 698.315 338.396 697.144 337.479L679.884 323.96Z" fill="white"/>
<path d="M713.453 322.266C712.678 323.593 711.754 324.651 710.681 325.441C709.607 326.232 708.469 326.776 707.267 327.074C706.056 327.339 704.827 327.372 703.582 327.172C702.337 326.973 701.154 326.546 700.035 325.892C698.896 325.226 697.933 324.4 697.148 323.413C696.363 322.426 695.798 321.345 695.456 320.172C695.104 318.966 695.009 317.701 695.171 316.378C695.332 315.055 695.801 313.73 696.576 312.404C697.351 311.078 698.269 310.03 699.33 309.26C700.403 308.47 701.546 307.942 702.757 307.677C703.959 307.379 705.183 307.33 706.429 307.529C707.674 307.729 708.867 308.162 710.007 308.828C711.126 309.482 712.078 310.302 712.863 311.289C713.648 312.276 714.223 313.362 714.586 314.548C714.929 315.721 715.02 316.969 714.858 318.292C714.697 319.616 714.228 320.94 713.453 322.266ZM702.542 321.603C703.267 322.027 703.991 322.31 704.713 322.454C705.426 322.565 706.109 322.562 706.762 322.443C707.428 322.303 708.036 322.047 708.587 321.675C709.118 321.29 709.559 320.797 709.91 320.196C710.261 319.595 710.474 318.969 710.549 318.318C710.603 317.654 710.521 317.009 710.304 316.382C710.099 315.734 709.757 315.131 709.277 314.572C708.809 313.993 708.212 313.492 707.487 313.068C706.783 312.656 706.063 312.389 705.329 312.266C704.607 312.122 703.914 312.119 703.248 312.259C702.595 312.378 702.003 312.629 701.473 313.014C700.921 313.387 700.47 313.874 700.119 314.475C699.768 315.076 699.565 315.708 699.511 316.371C699.457 317.034 699.533 317.69 699.738 318.338C699.955 318.965 700.297 319.569 700.765 320.148C701.245 320.706 701.837 321.191 702.542 321.603Z" fill="white"/>
<path d="M724.696 297.749C724.193 299.149 723.449 300.259 722.466 301.078C721.46 301.89 720.321 302.398 719.048 302.604L729.381 306.319L727.748 310.859L702.781 301.88L704.207 297.917L707.256 299.013C706.452 297.985 705.944 296.845 705.73 295.595C705.494 294.337 705.62 293.031 706.107 291.676C706.537 290.479 707.184 289.461 708.046 288.624C708.886 287.778 709.853 287.144 710.949 286.722C712.03 286.269 713.208 286.042 714.483 286.042C715.744 286.011 716.996 286.219 718.238 286.665C719.525 287.128 720.665 287.755 721.656 288.545C722.647 289.335 723.434 290.23 724.018 291.231C724.61 292.209 724.973 293.257 725.106 294.376C725.239 295.495 725.103 296.619 724.696 297.749ZM720.286 297.884C720.53 297.207 720.607 296.533 720.516 295.863C720.434 295.17 720.217 294.531 719.866 293.946C719.516 293.361 719.054 292.837 718.48 292.376C717.906 291.915 717.269 291.558 716.569 291.306C715.824 291.038 715.09 290.915 714.369 290.936C713.624 290.949 712.934 291.096 712.297 291.377C711.669 291.635 711.109 292.021 710.619 292.533C710.137 293.023 709.77 293.618 709.518 294.318C709.364 294.747 709.284 295.216 709.28 295.724C709.253 296.225 709.306 296.716 709.439 297.197C709.572 297.678 709.762 298.142 710.01 298.588C710.266 299.012 710.58 299.38 710.952 299.692L715.119 301.191C716.281 301.15 717.351 300.833 718.329 300.241C719.285 299.641 719.937 298.855 720.286 297.884Z" fill="white"/>
<path d="M730.228 275.601C729.984 277.093 729.514 278.402 728.819 279.529C728.1 280.651 727.232 281.567 726.217 282.276C725.201 282.986 724.074 283.482 722.835 283.766C721.601 284.026 720.345 284.051 719.066 283.842C717.739 283.624 716.533 283.196 715.446 282.556C714.335 281.912 713.412 281.092 712.675 280.096C711.915 279.096 711.373 277.949 711.049 276.656C710.73 275.339 710.694 273.923 710.943 272.407C711.191 270.891 711.672 269.584 712.387 268.485C713.106 267.362 713.972 266.458 714.984 265.773C716 265.063 717.123 264.591 718.353 264.354C719.587 264.094 720.832 264.067 722.088 264.273C722.395 264.323 722.69 264.383 722.97 264.454C723.254 264.5 723.487 264.563 723.669 264.641L721.313 279.029C722.059 279.079 722.739 279.008 723.354 278.816C723.969 278.625 724.515 278.338 724.991 277.954C725.467 277.57 725.859 277.111 726.165 276.577C726.471 276.044 726.675 275.469 726.775 274.853C726.931 273.906 726.851 272.981 726.537 272.078C726.203 271.148 725.682 270.467 724.974 270.035L726.78 266.135C728.089 267.055 729.081 268.348 729.756 270.015C730.412 271.655 730.569 273.517 730.228 275.601ZM719.793 268.931C718.376 268.821 717.177 269.159 716.197 269.947C715.197 270.708 714.59 271.739 714.377 273.042C714.272 273.682 714.292 274.305 714.436 274.912C714.56 275.492 714.788 276.028 715.121 276.52C715.454 277.012 715.881 277.447 716.403 277.824C716.929 278.178 717.531 278.435 718.21 278.594L719.793 268.931Z" fill="white"/>
<path d="M278.976 393.327L271.933 368.757L282.799 365.642C283.93 365.318 285.037 365.262 286.122 365.476C287.223 365.659 288.233 366.044 289.15 366.63C290.06 367.193 290.853 367.914 291.53 368.794C292.2 369.65 292.677 370.575 292.961 371.567C293.418 373.159 293.431 374.728 293 376.274C292.586 377.791 291.781 379.033 290.585 380L298.84 387.633L293.476 389.17L286.097 382.373L281.391 383.722L283.752 391.958L278.976 393.327ZM280.191 379.534L286.178 377.818C286.616 377.693 286.99 377.473 287.299 377.16C287.632 376.839 287.887 376.467 288.065 376.041C288.236 375.593 288.333 375.103 288.355 374.572C288.378 374.042 288.31 373.499 288.151 372.946C287.986 372.369 287.741 371.865 287.418 371.433C287.095 371.002 286.722 370.659 286.3 370.406C285.894 370.122 285.457 369.948 284.989 369.883C284.537 369.787 284.103 369.799 283.688 369.918L277.909 371.575L280.191 379.534Z" fill="white"/>
<path d="M311.229 382.063C309.875 382.737 308.539 383.122 307.218 383.217C305.887 383.29 304.637 383.122 303.468 382.712C302.298 382.303 301.237 381.679 300.283 380.84C299.35 379.991 298.595 378.987 298.017 377.827C297.417 376.624 297.06 375.394 296.943 374.138C296.816 372.861 296.941 371.632 297.319 370.452C297.685 369.25 298.299 368.14 299.159 367.122C300.04 366.093 301.168 365.236 302.543 364.551C303.918 363.866 305.26 363.492 306.57 363.429C307.901 363.356 309.14 363.529 310.288 363.95C311.457 364.359 312.497 364.994 313.409 365.854C314.341 366.703 315.091 367.697 315.658 368.835C315.798 369.114 315.921 369.388 316.028 369.657C316.156 369.915 316.242 370.14 316.284 370.333L303.234 376.836C303.631 377.469 304.086 377.98 304.601 378.367C305.115 378.754 305.668 379.029 306.258 379.19C306.848 379.352 307.449 379.401 308.061 379.338C308.673 379.274 309.258 379.103 309.817 378.825C310.676 378.397 311.38 377.791 311.928 377.009C312.487 376.194 312.735 375.373 312.672 374.546L316.891 373.731C316.911 375.331 316.442 376.892 315.484 378.414C314.538 379.905 313.119 381.121 311.229 382.063ZM310.538 369.698C309.799 368.484 308.823 367.71 307.611 367.375C306.409 367.009 305.217 367.12 304.036 367.708C303.456 367.997 302.962 368.378 302.553 368.849C302.156 369.289 301.854 369.787 301.65 370.345C301.445 370.903 301.342 371.504 301.341 372.148C301.362 372.781 301.506 373.42 301.773 374.064L310.538 369.698Z" fill="white"/>
<path d="M330.221 370.522C328.94 371.45 327.54 372.153 326.022 372.632C324.504 373.11 323.034 373.287 321.612 373.163L321.297 369.663C322.706 369.648 323.974 369.498 325.101 369.215C326.233 368.898 327.235 368.424 328.109 367.791C328.885 367.228 329.391 366.64 329.626 366.025C329.862 365.411 329.783 364.832 329.389 364.288C328.995 363.745 328.445 363.537 327.738 363.664C327.031 363.792 325.967 364.119 324.544 364.647C323.357 365.092 322.323 365.442 321.441 365.696C320.56 365.95 319.793 366.076 319.141 366.075C318.475 366.054 317.897 365.91 317.408 365.643C316.905 365.357 316.442 364.923 316.02 364.34C315.458 363.564 315.097 362.76 314.938 361.928C314.799 361.082 314.846 360.248 315.081 359.428C315.301 358.588 315.685 357.791 316.235 357.038C316.804 356.271 317.515 355.578 318.369 354.959C319.514 354.13 320.701 353.521 321.93 353.134C323.178 352.733 324.487 352.599 325.856 352.732L325.992 356.229C324.794 356.209 323.727 356.33 322.793 356.593C321.878 356.841 321.062 357.226 320.343 357.746C319.684 358.224 319.229 358.761 318.979 359.356C318.73 359.951 318.823 360.549 319.259 361.151C319.456 361.423 319.666 361.611 319.889 361.715C320.132 361.805 320.419 361.834 320.751 361.801C321.082 361.768 321.481 361.686 321.949 361.555C322.421 361.39 322.988 361.172 323.649 360.9C324.894 360.412 325.984 360.037 326.918 359.775C327.872 359.498 328.708 359.366 329.427 359.378C330.166 359.376 330.81 359.53 331.361 359.841C331.917 360.119 332.428 360.578 332.892 361.218C333.974 362.713 334.279 364.298 333.805 365.972C333.317 367.628 332.123 369.144 330.221 370.522Z" fill="white"/>
<path d="M346.851 356.336C345.775 357.411 344.622 358.204 343.393 358.715C342.147 359.209 340.901 359.447 339.655 359.429C338.409 359.411 337.197 359.154 336.02 358.659C334.86 358.146 333.819 357.428 332.898 356.506C331.943 355.55 331.21 354.491 330.699 353.33C330.17 352.152 329.898 350.94 329.882 349.694C329.849 348.431 330.08 347.177 330.576 345.932C331.089 344.669 331.892 343.492 332.985 342.4C334.078 341.309 335.239 340.524 336.468 340.047C337.714 339.553 338.952 339.324 340.18 339.359C341.426 339.377 342.621 339.651 343.764 340.18C344.924 340.693 345.956 341.402 346.86 342.307C347.082 342.529 347.287 342.751 347.474 342.973C347.679 343.178 347.832 343.366 347.935 343.537L337.559 353.898C338.139 354.376 338.736 354.718 339.351 354.923C339.965 355.128 340.579 355.214 341.194 355.181C341.808 355.147 342.397 355.002 342.96 354.747C343.524 354.491 344.028 354.141 344.472 353.698C345.155 353.016 345.633 352.214 345.907 351.292C346.181 350.337 346.156 349.475 345.832 348.707L349.596 346.584C350.125 348.104 350.175 349.742 349.747 351.5C349.319 353.223 348.354 354.836 346.851 356.336ZM342.25 344.762C341.159 343.839 339.981 343.412 338.718 343.479C337.455 343.513 336.354 343.998 335.415 344.936C334.954 345.397 334.604 345.917 334.364 346.497C334.125 347.043 333.997 347.615 333.979 348.212C333.962 348.81 334.055 349.416 334.259 350.03C334.481 350.628 334.822 351.191 335.282 351.72L342.25 344.762Z" fill="white"/>
<path d="M360.104 340.94C359.579 341.686 358.971 342.3 358.28 342.782C357.569 343.25 356.832 343.567 356.068 343.734C355.285 343.888 354.503 343.894 353.721 343.755C352.952 343.595 352.215 343.267 351.508 342.77C350.782 342.259 350.226 341.632 349.838 340.89C349.445 340.114 349.233 339.289 349.202 338.416C349.185 337.524 349.341 336.592 349.672 335.622C349.984 334.638 350.478 333.665 351.155 332.703C351.638 332.016 352.167 331.39 352.741 330.826C353.328 330.241 353.909 329.77 354.484 329.412L353.601 328.79C352.581 328.072 351.589 327.813 350.625 328.015C349.674 328.197 348.799 328.858 347.997 329.996C347.417 330.82 346.998 331.728 346.74 332.721C346.481 333.713 346.347 334.821 346.336 336.046L342.984 335.492C343.064 332.584 343.913 329.982 345.529 327.686C347.09 325.468 348.849 324.138 350.804 323.695C352.754 323.219 354.759 323.706 356.82 325.156L361.618 328.534C362.03 328.824 362.373 328.963 362.646 328.95C362.933 328.917 363.204 328.741 363.459 328.421L366.814 330.783C366.482 331.547 366.143 332.175 365.798 332.665C365.273 333.411 364.699 333.872 364.075 334.05C363.465 334.207 362.851 334.142 362.232 333.853L361.316 333.34C361.735 334.663 361.835 335.98 361.615 337.293C361.396 338.606 360.892 339.822 360.104 340.94ZM358.007 337.791C358.477 337.124 358.801 336.413 358.98 335.658C359.173 334.884 359.19 334.192 359.033 333.582C359.003 332.916 358.782 332.437 358.37 332.147L356.604 330.904C356.096 331.25 355.599 331.664 355.114 332.144C354.61 332.611 354.178 333.099 353.818 333.61C353.1 334.63 352.748 335.63 352.764 336.609C352.759 337.574 353.11 338.306 353.816 338.803C354.484 339.273 355.223 339.412 356.033 339.219C356.824 339.013 357.482 338.537 358.007 337.791Z" fill="white"/>
<path d="M361.334 309.51C360.694 310.818 360.359 312.108 360.328 313.378C360.276 314.638 360.615 315.735 361.345 316.669L371.461 321.821L369.284 326.097L352.562 317.581L354.56 313.656L358.135 315.476C357.712 314.886 357.38 314.275 357.139 313.643C356.877 313 356.695 312.358 356.593 311.717C356.491 311.075 356.474 310.477 356.542 309.923C356.6 309.336 356.742 308.819 356.97 308.372C357.089 308.138 357.176 307.968 357.23 307.862C357.295 307.734 357.365 307.622 357.441 307.527L361.334 309.51Z" fill="white"/>
<path d="M366.623 310.766C365.378 310.327 364.277 309.697 363.319 308.876C362.361 308.055 361.608 307.09 361.057 305.98C360.507 304.87 360.186 303.65 360.095 302.32C360.004 300.99 360.214 299.601 360.724 298.152C361.41 296.205 362.411 294.7 363.728 293.638C365.052 292.552 366.512 291.909 368.11 291.709L367.9 296.635C367.108 296.788 366.431 297.122 365.868 297.636C365.282 298.143 364.854 298.78 364.583 299.55C364.352 300.206 364.272 300.865 364.344 301.527C364.394 302.181 364.58 302.806 364.904 303.404C365.213 303.971 365.652 304.495 366.221 304.975C366.797 305.433 367.482 305.801 368.274 306.08C369.066 306.359 369.835 306.49 370.579 306.473C371.323 306.455 372.004 306.326 372.623 306.086C373.25 305.824 373.799 305.457 374.27 304.987C374.719 304.509 375.055 303.953 375.278 303.319C375.565 302.505 375.625 301.686 375.457 300.863C375.297 300.018 374.97 299.356 374.477 298.877L377.403 294.907C378.546 295.997 379.3 297.395 379.665 299.102C380.031 300.808 379.867 302.646 379.173 304.616C378.662 306.064 377.954 307.278 377.05 308.257C376.145 309.236 375.13 309.985 374.005 310.505C372.858 311.017 371.65 311.303 370.381 311.365C369.098 311.396 367.845 311.197 366.623 310.766Z" fill="white"/>
<path d="M385.852 273.877L385.058 278.636L374.618 276.893C373.15 276.648 372.028 276.741 371.25 277.171C370.449 277.597 369.966 278.307 369.8 279.301C369.729 279.727 369.748 280.193 369.859 280.698C369.969 281.203 370.166 281.698 370.45 282.184C370.711 282.665 371.048 283.123 371.462 283.557C371.876 283.991 372.354 284.338 372.894 284.599L383.76 286.412L382.966 291.17L357.044 286.844L357.838 282.086L368.597 283.882C367.505 282.994 366.736 281.916 366.29 280.65C365.825 279.356 365.711 277.998 365.948 276.578C366.149 275.371 366.526 274.424 367.079 273.737C367.607 273.047 368.251 272.546 369.008 272.234C369.766 271.923 370.596 271.757 371.5 271.738C372.404 271.718 373.317 271.786 374.24 271.94L385.852 273.877Z" fill="white"/>
<path d="M416.773 147.022L420.868 148.503L414.834 165.186L390.807 156.495L396.731 140.117L400.826 141.598L396.591 153.307L402.378 155.4L406.037 145.281L409.828 146.652L406.168 156.77L412.428 159.035L416.773 147.022Z" fill="white"/>
<path d="M423.945 142.415L404.002 139.885L406.292 135.476L421.758 138.114L410.723 126.946L412.814 122.921L426.352 137.782L423.945 142.415Z" fill="white"/>
<path d="M433.693 126.377C433.164 127.125 432.551 127.74 431.856 128.222C431.141 128.691 430.4 129.008 429.633 129.174C428.846 129.326 428.06 129.331 427.275 129.189C426.503 129.027 425.763 128.696 425.055 128.195C424.327 127.68 423.769 127.049 423.382 126.303C422.988 125.523 422.777 124.694 422.748 123.817C422.733 122.92 422.892 121.985 423.227 121.011C423.542 120.023 424.04 119.047 424.722 118.083C425.209 117.394 425.742 116.767 426.319 116.201C426.911 115.615 427.495 115.143 428.074 114.785L427.188 114.158C426.165 113.434 425.169 113.173 424.2 113.374C423.245 113.554 422.364 114.216 421.557 115.357C420.972 116.184 420.549 117.095 420.288 118.091C420.026 119.087 419.888 120.2 419.874 121.43L416.509 120.866C416.597 117.946 417.455 115.334 419.083 113.032C420.656 110.808 422.425 109.475 424.39 109.035C426.35 108.561 428.363 109.054 430.429 110.516L435.241 113.919C435.654 114.212 435.998 114.352 436.272 114.339C436.561 114.307 436.833 114.13 437.09 113.81L440.455 116.19C440.119 116.957 439.778 117.586 439.43 118.078C438.901 118.826 438.323 119.288 437.696 119.465C437.083 119.622 436.466 119.554 435.845 119.263L434.927 118.746C435.345 120.075 435.442 121.399 435.218 122.717C434.995 124.035 434.486 125.255 433.693 126.377ZM431.593 123.209C432.066 122.54 432.394 121.826 432.575 121.069C432.771 120.292 432.79 119.597 432.633 118.984C432.605 118.314 432.384 117.833 431.97 117.541L430.199 116.288C429.688 116.635 429.188 117.049 428.7 117.531C428.192 117.998 427.757 118.488 427.396 119C426.672 120.023 426.316 121.026 426.329 122.01C426.323 122.98 426.673 123.715 427.382 124.216C428.051 124.689 428.793 124.83 429.607 124.639C430.402 124.433 431.064 123.957 431.593 123.209Z" fill="white"/>
<path d="M422.802 96.7517L426.008 93.1471L441.126 106.593C441.646 107.055 442.161 107.289 442.671 107.293C443.181 107.297 443.644 107.066 444.059 106.6C444.25 106.385 444.421 106.119 444.573 105.805C444.741 105.472 444.874 105.141 444.974 104.812L448.148 106.768C447.951 107.46 447.628 108.184 447.179 108.941C446.73 109.699 446.275 110.337 445.812 110.857C444.807 111.987 443.73 112.603 442.58 112.704C441.428 112.772 440.296 112.311 439.184 111.322L422.802 96.7517Z" fill="white"/>
<path d="M454.236 102.349C452.778 103.652 451.253 104.173 449.661 103.912C448.069 103.652 446.453 102.603 444.812 100.767L436.901 91.9113L440.519 88.6792L447.731 96.7522C449.677 98.9302 451.432 99.3197 452.998 97.9208C453.7 97.2936 454.191 96.4836 454.469 95.4908C454.749 94.4638 454.71 93.3334 454.352 92.0996L446.513 83.3246L450.131 80.0925L459.055 90.0825C459.393 90.4605 459.697 90.6742 459.968 90.7236C460.257 90.757 460.562 90.646 460.884 90.3906L463.634 93.4686C463.338 93.8622 463.072 94.1806 462.837 94.4237C462.619 94.6508 462.411 94.8527 462.213 95.0296C461.565 95.6085 460.905 95.9388 460.234 96.0207C459.564 96.0684 458.961 95.8635 458.422 95.4058L457.328 94.3442C457.567 95.879 457.408 97.3316 456.852 98.702C456.296 100.072 455.424 101.288 454.236 102.349Z" fill="white"/>
<path d="M470.577 89.2982C469.814 89.7973 469.022 90.1431 468.201 90.3355C467.368 90.5078 466.565 90.5306 465.794 90.4039C465.01 90.2572 464.28 89.9744 463.605 89.5557C462.95 89.1238 462.386 88.5463 461.913 87.8232C461.427 87.08 461.141 86.292 461.056 85.4591C460.977 84.593 461.084 83.7486 461.378 82.9258C461.691 82.0898 462.181 81.2821 462.847 80.5025C463.5 79.7029 464.318 78.9813 465.303 78.3377C466.006 77.878 466.728 77.4917 467.47 77.1787C468.232 76.8527 468.946 76.6294 469.613 76.5088L469.021 75.6049C468.338 74.5604 467.512 73.954 466.541 73.7856C465.591 73.604 464.533 73.8942 463.368 74.656C462.525 75.2076 461.8 75.8968 461.193 76.7235C460.587 77.5501 460.052 78.5306 459.589 79.6647L456.679 77.9114C457.828 75.239 459.578 73.1344 461.928 71.5977C464.198 70.1135 466.323 69.5267 468.304 69.8372C470.292 70.1145 471.975 71.3077 473.354 73.4169L476.566 78.3281C476.842 78.7499 477.109 79.0053 477.368 79.0941C477.647 79.1698 477.964 79.1061 478.318 78.9029L480.564 82.3377C479.973 82.9249 479.427 83.3827 478.924 83.7111C478.161 84.2102 477.457 84.4269 476.812 84.3612C476.187 84.2825 475.64 83.9947 475.172 83.4979L474.51 82.6832C474.411 84.0669 474.017 85.3282 473.328 86.467C472.639 87.6058 471.722 88.5496 470.577 89.2982ZM469.791 85.5968C470.474 85.1502 471.038 84.6094 471.483 83.9743C471.948 83.3261 472.22 82.6895 472.299 82.0645C472.518 81.434 472.489 80.9079 472.213 80.4861L471.031 78.6782C470.431 78.8127 469.817 79.0136 469.188 79.2809C468.547 79.5281 467.965 79.8225 467.443 80.164C466.399 80.847 465.703 81.6463 465.355 82.5618C464.994 83.4572 465.05 84.2665 465.523 84.9896C465.97 85.6726 466.605 86.0743 467.429 86.1948C468.241 86.2952 469.028 86.0959 469.791 85.5968Z" fill="white"/>
<path d="M492.742 75.3191C492.289 75.8651 491.707 76.475 490.997 77.1489C490.286 77.8228 489.469 78.389 488.544 78.8475C487.942 79.1461 487.335 79.3534 486.723 79.4695C486.132 79.575 485.553 79.5677 484.984 79.4478C484.427 79.2958 483.902 79.0204 483.409 78.6216C482.906 78.2014 482.468 77.615 482.095 76.8625L477.28 67.1549L475.055 68.2586L473.407 64.9367L475.632 63.833L472.913 58.3503L477.235 56.2069L479.954 61.6896L483.502 59.9301L485.149 63.252L481.602 65.0115L485.697 73.2678C485.995 73.8698 486.359 74.2252 486.788 74.3339C487.228 74.4105 487.673 74.3368 488.125 74.1128C488.576 73.8889 488.98 73.595 489.335 73.2313C489.691 72.8675 489.971 72.5679 490.175 72.3324L492.742 75.3191Z" fill="white"/>
<path d="M502.904 72.9469C501.483 73.4458 500.114 73.6604 498.797 73.5906C497.472 73.4982 496.257 73.1772 495.152 72.6276C494.047 72.078 493.074 71.3296 492.235 70.3826C491.418 69.4276 490.796 68.341 490.369 67.1228C489.925 65.8594 489.724 64.5998 489.764 63.3439C489.797 62.0654 490.073 60.8662 490.592 59.7464C491.103 58.604 491.847 57.5827 492.823 56.6824C493.822 55.7743 495.043 55.0668 496.487 54.5599C497.931 54.053 499.304 53.8497 500.606 53.95C501.931 54.0424 503.135 54.3674 504.217 54.9249C505.323 55.4745 506.272 56.2308 507.066 57.1936C507.883 58.1486 508.501 59.2239 508.921 60.4196C509.024 60.7129 509.112 60.9988 509.184 61.2775C509.279 61.5482 509.336 61.7817 509.354 61.978L495.649 66.7894C495.962 67.465 496.349 68.026 496.81 68.4724C497.271 68.9188 497.783 69.2586 498.346 69.4916C498.909 69.7246 499.497 69.8476 500.11 69.8606C500.723 69.8736 501.322 69.7771 501.909 69.5712C502.811 69.2544 503.582 68.743 504.221 68.0372C504.875 67.3009 505.222 66.5203 505.262 65.6954L509.533 65.4121C509.354 66.9954 508.697 68.4804 507.562 69.8671C506.442 71.2233 504.889 72.2499 502.904 72.9469ZM503.752 60.6378C503.172 59.3463 502.304 58.4602 501.147 57.9795C500.004 57.4683 498.813 57.4305 497.572 57.8661C496.963 58.08 496.427 58.3947 495.965 58.8104C495.517 59.1956 495.158 59.6512 494.886 60.1773C494.615 60.7034 494.439 61.2847 494.358 61.9212C494.3 62.5497 494.363 63.199 494.548 63.8691L503.752 60.6378Z" fill="white"/>
<defs>
<filter id="filter0_d" x="223.308" y="0" width="216.692" height="220.191" filterUnits="userSpaceOnUse" color-interpolation-filters="sRGB">
<feFlood flood-opacity="0" result="BackgroundImageFix"/>
<feColorMatrix in="SourceAlpha" type="matrix" values="0 0 0 0 0 0 0 0 0 0 0 0 0 0 0 0 0 0 127 0"/>
<feOffset dy="4"/>
<feColorMatrix type="matrix" values="0 0 0 0 0 0 0 0 0 0 0 0 0 0 0 0 0 0 0.15 0"/>
<feBlend mode="normal" in2="BackgroundImageFix" result="effect1_dropShadow"/>
<feBlend mode="normal" in="SourceGraphic" in2="effect1_dropShadow" result="shape"/>
</filter>
<filter id="filter1_d" x="0" y="0" width="246.692" height="220.191" filterUnits="userSpaceOnUse" color-interpolation-filters="sRGB">
<feFlood flood-opacity="0" result="BackgroundImageFix"/>
<feColorMatrix in="SourceAlpha" type="matrix" values="0 0 0 0 0 0 0 0 0 0 0 0 0 0 0 0 0 0 127 0"/>
<feOffset dy="4"/>
<feColorMatrix type="matrix" values="0 0 0 0 0 0 0 0 0 0 0 0 0 0 0 0 0 0 0.15 0"/>
<feBlend mode="normal" in2="BackgroundImageFix" result="effect1_dropShadow"/>
<feBlend mode="normal" in="SourceGraphic" in2="effect1_dropShadow" result="shape"/>
</filter>
<filter id="filter2_d" x="0" y="192.809" width="216.692" height="250.191" filterUnits="userSpaceOnUse" color-interpolation-filters="sRGB">
<feFlood flood-opacity="0" result="BackgroundImageFix"/>
<feColorMatrix in="SourceAlpha" type="matrix" values="0 0 0 0 0 0 0 0 0 0 0 0 0 0 0 0 0 0 127 0"/>
<feOffset dy="4"/>
<feColorMatrix type="matrix" values="0 0 0 0 0 0 0 0 0 0 0 0 0 0 0 0 0 0 0.15 0"/>
<feBlend mode="normal" in2="BackgroundImageFix" result="effect1_dropShadow"/>
<feBlend mode="normal" in="SourceGraphic" in2="effect1_dropShadow" result="shape"/>
</filter>
<filter id="filter3_d" x="345" y="0" width="216.692" height="250.191" filterUnits="userSpaceOnUse" color-interpolation-filters="sRGB">
<feFlood flood-opacity="0" result="BackgroundImageFix"/>
<feColorMatrix in="SourceAlpha" type="matrix" values="0 0 0 0 0 0 0 0 0 0 0 0 0 0 0 0 0 0 127 0"/>
<feOffset dy="4"/>
<feColorMatrix type="matrix" values="0 0 0 0 0 0 0 0 0 0 0 0 0 0 0 0 0 0 0.15 0"/>
<feBlend mode="normal" in2="BackgroundImageFix" result="effect1_dropShadow"/>
<feBlend mode="normal" in="SourceGraphic" in2="effect1_dropShadow" result="shape"/>
</filter>
<filter id="filter4_d" x="538.308" y="0" width="246.692" height="220.191" filterUnits="userSpaceOnUse" color-interpolation-filters="sRGB">
<feFlood flood-opacity="0" result="BackgroundImageFix"/>
<feColorMatrix in="SourceAlpha" type="matrix" values="0 0 0 0 0 0 0 0 0 0 0 0 0 0 0 0 0 0 127 0"/>
<feOffset dy="4"/>
<feColorMatrix type="matrix" values="0 0 0 0 0 0 0 0 0 0 0 0 0 0 0 0 0 0 0.15 0"/>
<feBlend mode="normal" in2="BackgroundImageFix" result="effect1_dropShadow"/>
<feBlend mode="normal" in="SourceGraphic" in2="effect1_dropShadow" result="shape"/>
</filter>
<filter id="filter5_d" x="568.308" y="192.809" width="216.692" height="250.191" filterUnits="userSpaceOnUse" color-interpolation-filters="sRGB">
<feFlood flood-opacity="0" result="BackgroundImageFix"/>
<feColorMatrix in="SourceAlpha" type="matrix" values="0 0 0 0 0 0 0 0 0 0 0 0 0 0 0 0 0 0 127 0"/>
<feOffset dy="4"/>
<feColorMatrix type="matrix" values="0 0 0 0 0 0 0 0 0 0 0 0 0 0 0 0 0 0 0.15 0"/>
<feBlend mode="normal" in2="BackgroundImageFix" result="effect1_dropShadow"/>
<feBlend mode="normal" in="SourceGraphic" in2="effect1_dropShadow" result="shape"/>
</filter>
<filter id="filter6_d" x="345" y="222.809" width="246.692" height="220.191" filterUnits="userSpaceOnUse" color-interpolation-filters="sRGB">
<feFlood flood-opacity="0" result="BackgroundImageFix"/>
<feColorMatrix in="SourceAlpha" type="matrix" values="0 0 0 0 0 0 0 0 0 0 0 0 0 0 0 0 0 0 127 0"/>
<feOffset dy="4"/>
<feColorMatrix type="matrix" values="0 0 0 0 0 0 0 0 0 0 0 0 0 0 0 0 0 0 0.15 0"/>
<feBlend mode="normal" in2="BackgroundImageFix" result="effect1_dropShadow"/>
<feBlend mode="normal" in="SourceGraphic" in2="effect1_dropShadow" result="shape"/>
</filter>
<filter id="filter7_d" x="193.308" y="222.809" width="246.692" height="220.191" filterUnits="userSpaceOnUse" color-interpolation-filters="sRGB">
<feFlood flood-opacity="0" result="BackgroundImageFix"/>
<feColorMatrix in="SourceAlpha" type="matrix" values="0 0 0 0 0 0 0 0 0 0 0 0 0 0 0 0 0 0 127 0"/>
<feOffset dy="4"/>
<feColorMatrix type="matrix" values="0 0 0 0 0 0 0 0 0 0 0 0 0 0 0 0 0 0 0.15 0"/>
<feBlend mode="normal" in2="BackgroundImageFix" result="effect1_dropShadow"/>
<feBlend mode="normal" in="SourceGraphic" in2="effect1_dropShadow" result="shape"/>
</filter>
</defs>
</svg>
