<svg width="722" height="722" viewBox="0 0 722 722" fill="none" xmlns="http://www.w3.org/2000/svg">
<path d="M361 478C399.849 478 437.264 476.011 472.33 472.33C476.011 437.265 478 399.849 478 361C478 322.151 476.011 284.735 472.33 249.67L249.669 472.33C284.735 476.011 322.151 478 361 478Z" fill="url(#paint0_linear)"/>
<path d="M361.33 478C400.179 478 437.595 476.011 472.661 472.33C457.452 617.225 413.357 722 361.33 722C309.304 722 265.209 617.225 250 472.33C285.066 476.011 322.482 478 361.33 478Z" fill="#E42125"/>
<path d="M249.67 250C104.775 265.209 2.27415e-06 309.304 0 361.33C-2.27415e-06 413.357 104.775 457.452 249.67 472.661C245.989 437.595 244 400.179 244 361.33C244 322.482 245.989 285.066 249.67 250Z" fill="#E42125"/>
<path d="M472.661 249.67C437.595 245.989 400.179 244 361.33 244C322.482 244 285.066 245.989 250 249.67C265.209 104.775 309.304 0 361.33 0C413.357 0 457.452 104.775 472.661 249.67Z" fill="#E42125"/>
<path d="M472.33 249.67C437.265 245.989 399.849 244 361 244C322.151 244 284.735 245.989 249.67 249.67C245.989 284.735 244 322.151 244 361C244 399.849 245.989 437.265 249.67 472.33L472.33 249.67Z" fill="#AF2624"/>
<path d="M472.331 472.661C617.225 457.452 722 413.357 722 361.33C722 309.304 617.225 265.209 472.331 250C476.011 285.066 478 322.482 478 361.33C478 400.179 476.011 437.595 472.331 472.661Z" fill="white"/>
<defs>
<linearGradient id="paint0_linear" x1="363.835" y1="249.67" x2="363.835" y2="478" gradientUnits="userSpaceOnUse">
<stop stop-color="#E94E52"/>
<stop offset="1" stop-color="#F29EA1"/>
</linearGradient>
</defs>
</svg>
